<?xml version="1.0" encoding="UTF-8" standalone="no"?>
<!DOCTYPE svg PUBLIC "-//W3C//DTD SVG 1.1//EN" "http://www.w3.org/Graphics/SVG/1.1/DTD/svg11.dtd">
<svg xmlns="http://www.w3.org/2000/svg" version="1.1" viewBox="0.00 0.00 644.00 644.00">
<g stroke-width="2.00" fill="none" stroke-linecap="butt">
<path stroke="#017562" vector-effect="non-scaling-stroke" d="
  M 401.79 89.85
  Q 400.22 90.12 402.57 91.76
  Q 403.00 92.06 402.84 92.55
  Q 402.66 93.12 402.11 93.30
  Q 401.23 93.58 401.57 94.35
  Q 401.69 94.63 401.39 94.65
  A 0.50 0.49 0.6 0 0 400.91 95.11
  Q 400.68 98.55 400.24 101.56
  C 400.06 102.77 400.29 104.25 400.77 105.39
  Q 401.41 106.89 399.61 107.19
  Q 399.19 107.26 399.22 106.84
  Q 399.29 105.83 398.38 104.99
  Q 398.04 104.68 398.03 104.23
  Q 397.98 102.98 396.52 103.04
  A 0.83 0.82 -83.9 0 0 395.75 103.67
  L 394.07 110.76
  A 1.13 1.12 15.7 0 0 394.83 112.10
  Q 395.94 112.44 395.65 113.62
  Q 395.37 114.76 394.87 115.77
  Q 394.66 116.19 394.68 116.67
  L 394.92 121.48
  Q 394.95 122.25 394.24 121.96
  L 392.68 121.34
  Q 392.56 121.29 392.54 121.16
  Q 392.51 120.95 392.65 120.95
  Q 393.18 120.98 392.70 120.76
  Q 392.53 120.68 392.35 120.65
  Q 391.97 120.56 391.84 120.92
  Q 391.68 121.33 390.95 121.55"
/>
<path stroke="#019a55" vector-effect="non-scaling-stroke" d="
  M 390.95 121.55
  L 369.91 99.95"
/>
<path stroke="#47b86a" vector-effect="non-scaling-stroke" d="
  M 369.91 99.95
  L 327.77 57.08
  A 1.03 1.03 0.0 0 0 326.42 56.98
  Q 324.20 58.61 322.28 60.66
  Q 316.50 66.83 310.05 73.02
  Q 306.60 76.34 303.31 79.82
  L 285.02 99.17"
/>
<path stroke="#31b458" vector-effect="non-scaling-stroke" d="
  M 285.02 99.17
  L 255.03 129.24
  Q 254.35 129.93 255.32 129.93
  L 375.73 130.24"
/>
<path stroke="#017562" vector-effect="non-scaling-stroke" d="
  M 375.73 130.24
  Q 375.37 130.60 374.43 130.56
  Q 373.79 130.53 374.41 130.69
  Q 374.60 130.74 374.48 130.90
  Q 374.20 131.28 374.66 131.15
  Q 375.00 131.05 375.30 131.22
  Q 375.78 131.49 375.23 131.60
  Q 375.03 131.64 374.82 131.60
  Q 373.98 131.45 374.72 131.89
  Q 374.94 132.02 375.19 132.13
  Q 375.92 132.46 375.33 132.99
  Q 374.65 133.61 375.00 134.45
  Q 375.21 134.97 374.98 135.48
  L 373.72 138.28
  Q 373.63 138.50 373.76 138.70
  Q 373.84 138.82 373.98 138.88
  Q 374.57 139.15 374.15 139.64
  Q 373.75 140.11 373.19 140.07
  Q 372.56 140.03 372.08 140.45
  Q 371.24 141.19 370.11 141.12
  Q 369.12 141.06 369.11 142.06
  L 369.11 142.52
  Q 369.11 143.00 368.83 143.39
  Q 368.12 144.39 368.41 145.77
  Q 368.51 146.26 368.78 145.84
  L 369.76 144.29
  Q 370.10 143.75 370.66 144.05
  Q 371.36 144.43 371.87 145.08
  Q 372.19 145.47 372.67 145.31
  Q 373.30 145.10 373.66 144.52
  A 0.73 0.72 28.6 0 1 374.58 144.25
  Q 375.85 144.83 375.59 146.33
  Q 375.28 148.14 373.65 149.30
  Q 373.25 149.59 373.25 150.09
  Q 373.27 151.24 373.98 152.13
  Q 374.27 152.48 374.07 152.88
  Q 373.75 153.53 373.28 154.00
  Q 373.01 154.28 373.23 154.60
  Q 374.06 155.78 375.44 156.29
  A 1.73 1.73 0.0 0 1 376.54 158.24
  Q 376.39 159.02 376.51 159.73
  A 1.21 1.19 -77.1 0 0 377.00 160.52
  Q 377.77 161.06 378.72 161.23
  A 0.81 0.81 0.0 0 1 379.40 162.02
  Q 379.42 162.95 379.44 163.91
  Q 379.44 164.32 379.72 164.59
  Q 380.02 164.87 380.46 164.81
  Q 382.80 166.30 383.35 169.04
  Q 383.48 169.72 382.88 169.39
  Q 382.25 169.04 381.99 168.43
  A 1.63 1.59 4.0 0 0 381.31 167.67
  Q 380.65 167.29 380.24 166.70
  Q 379.95 166.29 379.49 166.09
  Q 378.43 165.64 378.26 164.57
  Q 378.21 164.25 377.89 164.22
  Q 376.75 164.11 376.59 163.08
  Q 376.53 162.74 376.21 162.62
  Q 375.12 162.24 374.11 161.12
  Q 372.77 159.63 370.42 158.71"
/>
<path stroke="#31b458" vector-effect="non-scaling-stroke" d="
  M 370.42 158.71
  C 367.96 156.67 366.34 154.65 362.75 154.61
  Q 349.98 154.46 337.21 154.53"
/>
<path stroke="#47b86a" vector-effect="non-scaling-stroke" d="
  M 337.21 154.53
  L 288.52 154.51
  A 2.88 2.84 21.5 0 0 286.45 155.39
  L 254.43 188.83"
/>
<path stroke="#31b458" vector-effect="non-scaling-stroke" d="
  M 254.43 188.83
  Q 250.37 192.52 247.80 195.30
  Q 237.42 206.56 227.22 217.43
  A 0.43 0.43 0.0 0 0 227.53 218.15
  L 247.74 218.52"
/>
<path stroke="#017562" vector-effect="non-scaling-stroke" d="
  M 247.74 218.52
  Q 248.14 219.04 248.80 219.22
  Q 249.84 219.50 248.77 219.66
  C 247.34 219.86 246.10 219.86 244.59 219.87
  Q 244.47 219.87 244.59 219.88
  Q 245.56 220.01 246.52 220.21
  Q 246.92 220.29 246.75 220.66
  Q 246.68 220.82 246.49 220.89
  Q 246.20 221.00 246.48 221.11
  Q 246.60 221.16 246.68 221.27
  Q 246.87 221.51 246.65 221.72
  Q 246.05 222.29 245.68 223.07
  Q 245.46 223.53 244.98 223.68
  L 241.64 224.73
  Q 241.23 224.86 240.95 225.20
  L 239.13 227.48
  Q 238.79 227.90 238.26 228.03
  Q 235.58 228.69 233.62 231.21
  Q 233.10 231.87 232.34 232.31
  Q 227.84 234.89 224.53 239.57
  Q 224.22 240.02 223.68 239.94
  Q 222.26 239.73 221.58 241.07
  Q 221.51 241.22 221.37 241.33
  Q 221.23 241.44 221.12 241.29
  Q 220.91 241.00 220.66 241.26
  Q 219.34 242.65 218.87 244.13
  Q 218.74 244.55 218.32 244.64
  Q 218.12 244.69 218.02 244.87
  Q 217.43 245.94 216.16 245.59
  Q 215.82 245.49 215.87 245.84
  Q 215.90 246.07 215.73 246.25
  Q 215.57 246.42 215.36 246.34
  Q 215.10 246.23 215.19 245.97
  Q 215.27 245.71 215.14 245.53
  Q 214.86 245.15 214.52 245.48
  L 214.13 245.85
  Q 213.82 246.14 213.76 245.72
  Q 213.71 245.42 213.52 245.19"
/>
<path stroke="#41baa9" vector-effect="non-scaling-stroke" d="
  M 213.52 245.19
  Q 213.65 244.73 214.16 244.39
  A 0.29 0.29 0.0 0 0 214.25 244.00
  Q 214.15 243.85 214.00 243.79
  Q 213.74 243.70 213.50 243.87
  Q 213.28 244.03 213.08 244.30"
/>
<path stroke="#41baa9" vector-effect="non-scaling-stroke" d="
  M 240.36 158.54
  Q 242.25 158.53 243.34 157.16
  Q 243.69 156.72 243.12 156.74
  Q 241.48 156.79 240.24 158.05"
/>
<path stroke="#31cf45" vector-effect="non-scaling-stroke" d="
  M 350.45 99.64
  L 343.99 99.79
  A 0.53 0.52 74.0 0 0 343.56 100.58
  Q 346.47 105.52 349.81 110.30
  C 355.87 118.99 364.18 125.21 374.66 126.73
  Q 378.23 127.25 381.25 128.03
  Q 386.91 129.49 396.80 127.73"
/>
<path stroke="#016455" vector-effect="non-scaling-stroke" d="
  M 446.75 195.17
  L 446.56 196.14
  Q 446.46 196.64 445.98 196.47
  Q 445.07 196.15 444.54 196.97
  Q 441.37 201.89 438.81 207.27
  Q 438.59 207.72 438.58 208.22
  Q 438.56 208.98 437.82 209.25
  Q 437.60 209.33 437.47 209.52
  Q 437.28 209.83 437.40 210.10
  Q 437.52 210.37 437.24 210.27
  Q 436.59 210.01 436.27 210.73
  Q 435.68 212.00 435.29 213.42
  Q 435.16 213.90 434.79 214.23
  Q 432.31 216.48 432.58 220.01
  A 1.02 1.01 61.6 0 1 432.39 220.66
  L 430.50 223.20
  Q 430.13 223.69 429.53 223.64
  Q 428.68 223.56 427.97 223.99
  A 0.66 0.65 74.6 0 0 427.66 224.55
  Q 427.65 225.02 427.23 225.13
  Q 426.40 225.36 426.39 226.22
  Q 426.39 227.77 424.69 227.97
  Q 424.51 227.99 424.47 228.14
  Q 424.44 228.25 424.65 228.29
  Q 424.84 228.33 424.68 228.44
  L 420.86 231.01
  Q 420.53 231.23 420.18 231.06
  Q 419.76 230.85 419.42 231.18
  Q 419.16 231.43 419.38 231.71
  Q 419.75 232.17 420.26 231.96
  Q 420.52 231.85 420.61 232.12
  Q 420.82 232.77 420.26 233.13
  Q 418.17 234.49 417.80 236.66
  Q 417.52 238.28 416.89 239.74
  Q 415.94 241.92 414.87 243.95
  Q 414.66 244.35 414.22 244.43
  Q 413.75 244.51 413.66 245.01
  Q 413.58 245.46 413.43 245.86
  Q 412.67 247.90 412.07 249.76
  Q 411.69 250.97 411.84 252.62
  Q 411.97 254.01 411.74 255.37
  Q 411.66 255.88 411.28 255.53
  Q 408.14 252.72 407.77 254.68"
/>
<path stroke="#017d66" vector-effect="non-scaling-stroke" d="
  M 407.77 254.68
  Q 403.90 250.78 399.88 246.61
  Q 399.32 246.02 398.70 245.59
  Q 398.06 245.14 397.24 245.09
  Q 390.56 244.65 383.57 244.98
  Q 377.93 245.25 369.52 245.09
  Q 369.00 245.08 368.60 245.43
  Q 368.24 245.74 367.79 245.53"
/>
<path stroke="#01914f" vector-effect="non-scaling-stroke" d="
  M 367.79 245.53
  Q 367.28 245.06 366.75 245.06
  Q 351.84 245.18 336.98 245.11"
/>
<path stroke="#47af64" vector-effect="non-scaling-stroke" d="
  M 336.98 245.11
  L 315.28 245.31"
/>
<path stroke="#30ab52" vector-effect="non-scaling-stroke" d="
  M 315.28 245.31
  Q 286.27 245.08 257.24 244.95
  Q 254.96 244.94 253.52 246.39
  Q 243.70 256.38 229.51 272.00
  C 226.47 275.35 223.32 278.39 220.20 281.61"
/>
<path stroke="#47af64" vector-effect="non-scaling-stroke" d="
  M 220.20 281.61
  L 209.89 292.17"
/>
<path stroke="#30ab52" vector-effect="non-scaling-stroke" d="
  M 209.89 292.17
  L 179.31 325.27
  Q 178.69 325.94 179.60 325.95
  Q 220.13 326.10 264.77 325.81
  Q 281.06 325.70 290.62 313.12
  Q 291.52 311.94 294.18 307.10"
/>
<path stroke="#017d66" vector-effect="non-scaling-stroke" d="
  M 294.18 307.10
  L 294.48 307.06
  Q 294.80 307.01 294.89 307.31
  C 295.79 310.25 296.54 313.29 298.37 315.82
  Q 305.88 326.17 319.20 326.01"
/>
<path stroke="#016455" vector-effect="non-scaling-stroke" d="
  M 319.20 326.01
  L 315.47 326.27
  Q 313.33 326.42 314.87 327.91
  Q 317.42 330.37 318.76 333.05
  Q 319.17 333.87 319.82 334.48
  Q 320.79 335.39 321.58 336.36
  Q 321.70 336.51 321.90 336.51
  Q 322.12 336.50 322.07 336.35
  Q 321.90 335.77 322.43 336.03
  Q 324.78 337.16 326.53 339.02
  Q 326.97 339.49 327.60 339.38
  Q 329.43 339.05 329.74 340.96
  A 0.76 0.75 76.7 0 0 330.71 341.56
  Q 332.68 340.96 334.03 342.83
  Q 334.37 343.30 334.84 342.96
  Q 335.50 342.48 336.32 342.61
  Q 337.48 342.81 338.61 342.63
  Q 339.34 342.52 339.76 343.12
  Q 340.42 344.07 341.44 344.63
  Q 341.92 344.89 342.04 345.43
  L 342.69 348.30
  Q 342.80 348.78 343.29 348.85
  Q 344.90 349.07 346.38 349.99
  Q 346.93 350.33 346.30 350.46
  Q 346.10 350.50 346.19 350.68
  Q 346.56 351.33 345.82 351.18
  Q 345.07 351.02 344.42 351.26
  Q 343.82 351.48 344.23 351.97
  Q 344.99 352.89 346.96 352.75"
/>
<path stroke="#01914f" vector-effect="non-scaling-stroke" d="
  M 346.96 352.75
  L 338.82 352.85"
/>
<path stroke="#30ab52" vector-effect="non-scaling-stroke" d="
  M 338.82 352.85
  L 317.01 352.85"
/>
<path stroke="#029f4f" vector-effect="non-scaling-stroke" d="
  M 317.01 352.85
  L 240.53 353.10
  A 3.38 3.36 -68.4 0 0 238.07 354.17
  C 226.61 366.33 216.56 377.74 203.57 391.07
  Q 199.89 394.85 187.54 408.94"
/>
<path stroke="#017d66" vector-effect="non-scaling-stroke" d="
  M 187.54 408.94
  L 155.06 442.36
  A 1.12 1.11 -67.8 0 0 155.85 444.25
  L 160.95 444.28"
/>
<path stroke="#016455" vector-effect="non-scaling-stroke" d="
  M 160.95 444.28
  L 160.99 450.23
  Q 160.99 450.73 160.50 450.76
  L 158.87 450.87
  Q 158.37 450.91 158.13 451.35
  Q 157.60 452.32 156.61 452.90
  A 1.64 1.62 -7.4 0 0 155.87 453.85
  Q 155.36 455.70 154.29 456.91
  Q 152.74 458.67 150.76 459.97
  Q 150.40 460.21 150.35 460.64
  Q 150.20 462.09 149.25 463.14
  Q 147.28 465.31 146.25 468.04
  Q 145.94 468.88 146.83 468.87
  Q 147.58 468.87 147.97 469.48
  Q 148.31 470.02 147.75 470.31
  Q 146.71 470.85 145.55 470.42
  Q 145.16 470.27 144.75 470.38
  L 143.36 470.78"
/>
<path stroke="#40b1a3" vector-effect="non-scaling-stroke" d="
  M 194.42 357.71
  L 200.14 352.14
  Q 200.50 351.79 200.00 351.83
  L 183.49 353.01"
/>
<path stroke="#40b1a3" vector-effect="non-scaling-stroke" d="
  M 213.01 244.76
  Q 213.09 245.24 213.52 245.19"
/>
<path stroke="#30ab52" vector-effect="non-scaling-stroke" d="
  M 247.74 218.52
  Q 256.33 218.48 264.92 218.51
  Q 277.54 218.55 280.76 217.42
  Q 290.23 214.09 294.99 204.65
  A 0.90 0.90 0.0 0 1 296.60 204.64
  C 300.47 212.27 307.57 218.69 316.50 218.69
  Q 366.50 218.70 415.50 218.31
  Q 418.71 218.29 426.39 217.94
  Q 426.94 217.92 426.59 217.50
  L 423.73 214.10"
/>
<path stroke="#01914f" vector-effect="non-scaling-stroke" d="
  M 423.73 214.10
  L 398.96 188.46"
/>
<path stroke="#47af64" vector-effect="non-scaling-stroke" d="
  M 398.96 188.46
  L 395.75 185.31"
/>
<path stroke="#30ab52" vector-effect="non-scaling-stroke" d="
  M 395.75 185.31
  Q 389.81 179.30 383.75 173.21
  C 379.28 168.71 374.94 163.52 370.42 158.71"
/>
<path stroke="#30ab52" vector-effect="non-scaling-stroke" d="
  M 375.73 130.24
  L 398.38 129.89
  Q 398.94 129.88 398.55 129.49
  L 396.80 127.73"
/>
<path stroke="#01914f" vector-effect="non-scaling-stroke" d="
  M 396.80 127.73
  L 390.95 121.55"
/>
<path stroke="#47d457" vector-effect="non-scaling-stroke" d="
  M 369.91 99.95
  L 350.45 99.64"
/>
<path stroke="#77ee5a" vector-effect="non-scaling-stroke" d="
  M 350.45 99.64
  C 332.91 99.77 315.22 100.19 297.68 99.53
  Q 291.56 99.30 285.02 99.17"
/>
<path stroke="#77ee5a" vector-effect="non-scaling-stroke" d="
  M 337.21 154.53
  Q 337.89 156.07 338.31 157.66
  Q 338.85 159.74 339.34 160.77
  Q 348.41 179.89 369.75 183.36
  Q 376.31 184.43 395.75 185.31"
/>
<path stroke="#47d457" vector-effect="non-scaling-stroke" d="
  M 398.96 188.46
  L 348.11 188.76"
/>
<path stroke="#77ee5a" vector-effect="non-scaling-stroke" d="
  M 348.11 188.76
  L 254.43 188.83"
/>
<path stroke="#41a99b" vector-effect="non-scaling-stroke" d="
  M 455.46 352.71
  Q 454.27 351.94 453.34 352.18
  Q 452.76 352.33 453.17 352.76
  Q 453.85 353.47 455.02 353.55"
/>
<path stroke="#41a99b" vector-effect="non-scaling-stroke" d="
  M 442.05 458.06
  L 441.74 452.98
  Q 441.70 452.39 441.17 452.65
  Q 440.90 452.77 440.88 453.07
  Q 440.31 459.35 437.28 464.46
  Q 436.28 466.15 433.94 467.87
  Q 432.01 469.29 430.00 470.79"
/>
<path stroke="#159f8b" vector-effect="non-scaling-stroke" d="
  M 356.21 570.43
  Q 355.11 585.26 355.67 600.37"
/>
<path stroke="#41a99b" vector-effect="non-scaling-stroke" d="
  M 355.67 600.37
  L 327.29 600.47"
/>
<path stroke="#058a6d" vector-effect="non-scaling-stroke" d="
  M 327.29 600.47
  C 327.72 597.49 327.55 594.58 327.56 591.55
  C 327.69 566.40 327.40 542.31 327.62 514.25
  Q 327.69 506.54 327.19 499.25
  Q 327.03 496.89 325.69 494.43"
/>
<path stroke="#016d5b" vector-effect="non-scaling-stroke" d="
  M 325.69 494.43
  Q 325.35 493.75 326.20 493.47
  A 1.20 1.18 83.0 0 0 327.00 492.43
  Q 327.66 483.00 326.89 473.35
  A 1.83 1.82 87.0 0 0 325.02 471.66
  Q 313.08 471.99 300.75 472.03
  Q 298.78 472.03 296.82 472.62"
/>
<path stroke="#41a99b" vector-effect="non-scaling-stroke" d="
  M 296.82 472.62
  L 281.55 472.77"
/>
<path stroke="#41a99b" vector-effect="non-scaling-stroke" d="
  M 210.19 461.01
  Q 210.34 460.40 210.31 460.03
  Q 210.23 459.17 209.79 459.92
  Q 209.49 460.44 209.42 461.05
  A 0.94 0.93 -12.9 0 1 208.98 461.74
  Q 208.23 462.18 208.81 463.05"
/>
<path stroke="#01755e" vector-effect="non-scaling-stroke" d="
  M 160.95 444.28
  C 182.40 444.38 203.84 444.02 225.28 444.28
  Q 254.45 444.62 283.64 444.27
  C 287.77 444.22 292.40 443.98 296.22 442.84
  Q 309.20 438.95 313.22 425.80
  Q 313.38 425.28 313.66 425.01
  Q 314.12 424.57 314.56 424.63"
/>
<path stroke="#039747" vector-effect="non-scaling-stroke" d="
  M 314.56 424.63
  C 318.95 435.45 329.15 444.14 341.00 444.22
  Q 390.70 444.53 498.61 444.23
  Q 499.19 444.23 498.77 443.83
  L 492.72 438.03"
/>
<path stroke="#01784c" vector-effect="non-scaling-stroke" d="
  M 492.72 438.03
  L 466.38 408.96"
/>
<path stroke="#016d5b" vector-effect="non-scaling-stroke" d="
  M 466.38 408.96
  Q 441.02 383.46 418.61 356.64
  Q 415.92 353.43 411.51 353.40
  Q 394.57 353.31 384.25 353.38
  Q 378.03 353.43 370.81 353.06"
/>
<path stroke="#018948" vector-effect="non-scaling-stroke" d="
  M 370.81 353.06
  L 346.96 352.75"
/>
<path stroke="#01755e" vector-effect="non-scaling-stroke" d="
  M 319.20 326.01
  Q 331.10 326.08 343.01 326.07
  Q 348.86 326.06 353.67 323.91
  Q 356.41 322.69 359.34 319.45
  Q 362.11 316.38 364.90 313.32"
/>
<path stroke="#018948" vector-effect="non-scaling-stroke" d="
  M 364.90 313.32
  Q 374.44 325.82 389.24 325.80
  Q 407.22 325.78 425.25 326.01
  C 441.46 326.22 457.44 325.85 473.21 325.65
  A 0.56 0.56 0.0 0 0 473.63 324.73
  L 470.55 321.10"
/>
<path stroke="#01784c" vector-effect="non-scaling-stroke" d="
  M 470.55 321.10
  L 444.01 292.76"
/>
<path stroke="#01755e" vector-effect="non-scaling-stroke" d="
  M 444.01 292.76
  Q 433.60 282.12 423.57 271.97
  C 418.02 266.35 412.97 260.56 407.77 254.68"
/>
<path stroke="#47d457" vector-effect="non-scaling-stroke" d="
  M 405.29 292.26
  L 354.82 292.20"
/>
<path stroke="#47c06d" vector-effect="non-scaling-stroke" d="
  M 354.82 292.20
  L 300.47 292.30"
/>
<path stroke="#49e256" vector-effect="non-scaling-stroke" d="
  M 300.47 292.30
  L 210.23 292.91"
/>
<path stroke="#77ee5a" vector-effect="non-scaling-stroke" d="
  M 210.23 292.91
  Q 209.94 292.84 209.89 292.17"
/>
<path stroke="#01915d" vector-effect="non-scaling-stroke" d="
  M 444.01 292.76
  L 405.75 292.32"
/>
<path stroke="#01a259" vector-effect="non-scaling-stroke" d="
  M 405.75 292.32
  Q 405.49 292.00 405.29 292.26"
/>
<path stroke="#47c06d" vector-effect="non-scaling-stroke" d="
  M 405.29 292.26
  Q 405.50 291.93 405.28 291.75
  Q 392.07 280.97 381.86 268.41"
/>
<path stroke="#01a259" vector-effect="non-scaling-stroke" d="
  M 311.50 408.64
  Q 310.49 415.67 313.47 421.66"
/>
<path stroke="#03b058" vector-effect="non-scaling-stroke" d="
  M 313.47 421.66
  L 314.56 424.63"
/>
<path stroke="#019a55" vector-effect="non-scaling-stroke" d="
  M 370.81 353.06
  Q 372.46 363.03 377.54 370.71
  Q 381.30 376.38 382.60 378.72"
/>
<path stroke="#47d457" vector-effect="non-scaling-stroke" d="
  M 382.60 378.72
  Q 379.19 385.13 375.51 388.02
  Q 372.43 390.43 367.58 390.88
  Q 363.77 391.23 359.90 389.24
  C 354.18 386.29 351.05 382.62 347.36 377.22"
/>
<path stroke="#31cf45" vector-effect="non-scaling-stroke" d="
  M 338.82 352.85
  Q 340.56 365.88 347.36 377.22"
/>
<path stroke="#77ee5a" vector-effect="non-scaling-stroke" d="
  M 347.36 377.22
  Q 346.37 377.65 345.73 377.18
  Q 345.34 376.90 344.87 376.88
  Q 343.97 376.83 343.16 376.43
  Q 342.73 376.23 342.26 376.15
  L 311.69 371.24"
/>
<path stroke="#01a259" vector-effect="non-scaling-stroke" d="
  M 367.79 245.53
  Q 370.56 254.21 374.10 258.40
  Q 378.20 263.23 381.86 268.41"
/>
<path stroke="#47d457" vector-effect="non-scaling-stroke" d="
  M 381.86 268.41
  Q 381.15 268.31 380.84 268.86
  Q 378.72 272.59 375.81 276.02
  Q 373.51 278.74 370.40 279.43
  Q 363.59 280.94 358.21 277.86
  C 349.30 272.74 343.35 263.68 340.02 253.99
  Q 338.56 249.75 336.98 245.11"
/>
<path stroke="#77ee5a" vector-effect="non-scaling-stroke" d="
  M 315.28 245.31
  Q 313.30 259.59 304.25 270.50
  C 301.64 273.66 300.08 275.66 296.89 277.10
  Q 296.20 277.41 295.53 277.20
  Q 295.00 277.03 294.46 277.17
  Q 293.14 277.49 292.08 278.27
  Q 291.79 278.48 291.44 278.53
  Q 288.65 278.92 286.08 278.34
  Q 284.26 277.93 282.42 277.72
  Q 280.58 277.52 279.04 276.29
  Q 275.23 273.25 273.53 268.58
  A 0.71 0.71 0.0 0 0 272.30 268.38
  Q 265.67 276.88 258.45 284.94
  C 257.20 286.33 255.82 287.51 254.32 288.67
  A 1.34 1.18 -25.1 0 1 252.23 288.06
  Q 252.13 287.43 251.53 287.04
  Q 251.00 286.69 250.47 287.06
  Q 250.21 287.24 249.98 287.01
  Q 249.75 286.78 249.45 286.69
  Q 239.94 283.83 229.95 279.35
  Q 229.51 279.15 229.03 279.25
  Q 227.96 279.47 226.90 278.95
  Q 226.52 278.77 226.19 279.02
  Q 225.66 279.43 225.30 278.87
  Q 225.05 278.50 224.69 278.76
  Q 224.30 279.05 223.82 279.15
  Q 223.33 279.25 223.01 279.64
  Q 221.93 281.02 220.20 281.61"
/>
<path stroke="#31cf45" vector-effect="non-scaling-stroke" d="
  M 423.73 214.10
  Q 421.32 215.50 418.08 215.42
  Q 413.02 215.29 412.42 215.35
  Q 406.96 215.84 401.50 216.39
  Q 399.14 216.63 395.81 215.96
  Q 393.08 215.42 390.23 215.03
  Q 379.76 213.62 370.33 207.82
  C 367.82 206.27 365.72 204.31 363.37 202.56
  C 360.44 200.37 357.99 197.78 355.50 195.05
  Q 354.24 193.67 352.09 192.20
  Q 349.88 190.70 348.11 188.76"
/>
<path stroke="#32dd45" vector-effect="non-scaling-stroke" d="
  M 317.01 352.85
  Q 315.91 356.90 315.14 360.95
  Q 314.60 363.83 313.68 366.18
  Q 312.69 368.70 311.69 371.24"
/>
<path stroke="#49e256" vector-effect="non-scaling-stroke" d="
  M 311.69 371.24
  Q 307.32 380.31 299.81 387.09
  C 298.62 388.16 297.01 388.80 295.63 389.60
  Q 294.03 390.53 292.18 390.41
  Q 289.83 390.27 287.64 390.42
  Q 285.46 390.57 283.54 389.55
  Q 276.58 385.87 273.26 378.80
  A 0.31 0.31 0.0 0 0 272.73 378.75
  Q 264.36 390.14 254.50 400.60
  C 251.82 403.45 248.94 405.98 246.13 408.78"
/>
<path stroke="#03b058" vector-effect="non-scaling-stroke" d="
  M 246.13 408.78
  L 187.54 408.94"
/>
<path stroke="#32dd45" vector-effect="non-scaling-stroke" d="
  M 210.23 292.91
  Q 209.70 293.59 209.90 294.03
  Q 210.09 294.44 210.54 294.45
  Q 212.34 294.49 213.78 295.43
  Q 215.01 296.23 216.51 296.66
  Q 220.53 297.82 224.52 299.21
  A 1.46 1.46 0.0 0 0 225.46 299.21
  Q 225.89 299.07 226.32 299.18
  Q 232.04 300.77 237.66 302.69
  Q 239.00 303.15 240.37 302.75
  Q 243.20 301.94 246.12 300.45
  C 247.40 299.79 248.70 299.78 250.10 299.65
  Q 251.48 299.53 252.95 299.95
  Q 254.96 300.51 256.96 300.55
  Q 257.04 300.55 257.10 300.60
  Q 257.25 300.72 257.33 300.89
  A 0.63 0.63 0.0 0 0 257.83 301.25
  Q 262.96 301.79 268.23 302.18
  Q 273.74 302.59 280.10 304.01
  Q 281.47 304.32 282.86 304.28
  C 285.03 304.22 286.72 305.64 288.85 304.36
  A 0.54 0.54 0.0 0 1 289.62 304.59
  Q 290.09 305.54 290.99 304.96
  A 1.24 1.18 26.8 0 1 291.61 304.77
  Q 292.86 304.72 292.90 305.25
  Q 292.92 305.64 293.26 305.43
  Q 293.68 305.17 294.23 305.17
  Q 294.60 305.17 294.64 305.54
  Q 294.67 305.77 294.77 305.97"
/>
<path stroke="#31bc5c" vector-effect="non-scaling-stroke" d="
  M 294.77 305.97
  Q 294.37 306.45 294.18 307.10"
/>
<path stroke="#44d7bb" vector-effect="non-scaling-stroke" d="
  M 327.29 600.47
  L 297.60 600.29"
/>
<path stroke="#18cdaa" vector-effect="non-scaling-stroke" d="
  M 297.60 600.29
  Q 298.08 586.80 297.68 573.33
  Q 297.66 572.79 297.45 572.49
  Q 297.02 571.89 296.47 572.26"
/>
<path stroke="#40b1a3" vector-effect="non-scaling-stroke" d="
  M 429.96 611.73
  L 421.51 611.64
  Q 421.01 611.63 420.58 611.88
  Q 420.14 612.13 419.69 612.12
  Q 415.41 612.04 411.41 612.17
  Q 407.18 612.31 403.12 612.30
  Q 387.51 612.23 372.77 612.95
  Q 370.17 613.08 367.49 613.51
  Q 365.14 613.88 362.97 614.03
  Q 360.09 614.23 357.58 615.65
  Q 357.15 615.90 356.66 615.93
  L 352.28 616.19"
/>
<path stroke="#059b7a" vector-effect="non-scaling-stroke" d="
  M 325.69 494.43
  Q 317.71 484.66 305.24 482.01
  Q 301.55 481.22 297.81 480.88"
/>
<path stroke="#41baa9" vector-effect="non-scaling-stroke" d="
  M 297.20 475.35
  Q 298.43 472.08 296.82 472.62"
/>
<path stroke="#54ecd9" vector-effect="non-scaling-stroke" d="
  M 440.36 579.85
  Q 441.21 581.69 441.65 583.45
  Q 441.86 584.29 441.65 584.99
  Q 441.42 585.77 441.55 586.57
  C 441.93 588.92 441.67 591.56 441.66 593.92
  Q 441.66 594.54 441.96 595.08
  Q 442.24 595.58 442.13 596.10
  A 0.69 0.68 3.3 0 1 441.51 596.65
  C 435.06 597.09 428.53 598.21 422.18 598.52
  C 412.61 598.99 403.28 599.76 394.26 599.95
  Q 377.25 600.30 360.25 600.46
  Q 357.76 600.48 355.67 600.37"
/>
<path stroke="#018959" vector-effect="non-scaling-stroke" d="
  M 466.38 408.96
  L 409.30 408.62"
/>
<path stroke="#47b86a" vector-effect="non-scaling-stroke" d="
  M 409.30 408.62
  Q 409.44 408.64 409.51 408.49
  A 0.31 0.31 0.0 0 0 409.42 408.14
  Q 394.15 395.59 382.60 378.72"
/>
<path stroke="#03b246" vector-effect="non-scaling-stroke" d="
  M 492.72 438.03
  Q 490.94 438.62 489.08 438.66
  Q 486.43 438.72 485.44 438.90
  Q 483.49 439.27 481.33 439.72
  Q 480.46 439.89 479.61 439.85
  C 478.16 439.78 476.96 440.44 475.48 440.41
  Q 468.20 440.26 461.47 438.57
  Q 458.95 437.94 456.22 437.27
  Q 453.61 436.63 450.98 435.53
  Q 447.96 434.26 444.86 433.17"
/>
<path stroke="#01a446" vector-effect="non-scaling-stroke" d="
  M 405.75 292.32
  Q 405.11 292.91 405.39 293.50
  Q 405.86 294.52 406.81 295.34
  Q 412.91 300.60 419.00 305.82
  Q 424.25 310.32 429.02 312.21
  Q 433.24 313.88 437.05 315.61
  Q 440.99 317.40 445.63 318.42
  Q 451.21 319.64 454.82 319.77
  Q 456.86 319.84 459.26 320.27
  C 461.43 320.66 462.88 320.63 464.81 320.63
  Q 465.61 320.63 467.64 321.02
  Q 469.02 321.28 470.55 321.10"
/>
<path stroke="#01a259" vector-effect="non-scaling-stroke" d="
  M 364.90 313.32
  Q 363.60 311.34 361.27 308.49
  Q 357.54 303.96 355.18 295.49
  Q 355.05 295.02 355.17 294.54
  Q 355.62 292.72 354.82 292.20"
/>
<path stroke="#03b058" vector-effect="non-scaling-stroke" d="
  M 300.47 292.30
  L 299.16 292.48
  Q 298.63 292.54 298.59 293.08
  Q 298.12 299.96 294.77 305.97"
/>
<path stroke="#47c35b" vector-effect="non-scaling-stroke" d="
  M 409.30 408.62
  Q 408.97 408.87 408.28 408.74"
/>
<path stroke="#47d457" vector-effect="non-scaling-stroke" d="
  M 408.28 408.74
  L 311.50 408.64"
/>
<path stroke="#47c06d" vector-effect="non-scaling-stroke" d="
  M 311.50 408.64
  L 246.13 408.78"
/>
<path stroke="#01a446" vector-effect="non-scaling-stroke" d="
  M 408.28 408.74
  Q 408.14 410.89 411.89 411.10
  Q 412.44 411.13 412.85 411.49
  C 417.39 415.47 421.40 420.23 426.73 423.29
  C 429.88 425.11 432.71 427.22 436.04 428.81
  Q 440.46 430.92 444.86 433.17"
/>
<path stroke="#03c342" vector-effect="non-scaling-stroke" d="
  M 444.86 433.17
  Q 438.67 431.60 432.19 431.32
  C 431.19 431.27 430.27 431.99 429.33 431.30
  A 1.43 1.42 -37.2 0 0 427.99 431.12
  Q 426.53 431.68 425.22 430.88
  Q 424.67 430.54 425.22 430.20
  L 425.51 430.02
  Q 426.04 429.69 425.44 429.53
  Q 422.09 428.66 417.09 428.18
  Q 412.09 427.71 407.15 427.58
  Q 403.93 427.49 400.85 427.27
  Q 397.70 427.05 394.59 426.51
  Q 394.54 426.50 394.50 426.47
  Q 394.38 426.40 394.67 426.25
  Q 394.72 426.22 394.67 426.21
  Q 391.63 425.95 388.53 425.86
  Q 385.51 425.77 382.55 425.43
  Q 373.98 424.46 365.51 424.11
  Q 365.41 424.11 365.46 424.19
  Q 365.53 424.31 365.48 424.45
  Q 365.45 424.55 365.34 424.52
  Q 364.04 424.16 362.74 423.86
  Q 361.64 423.61 360.78 424.21
  Q 360.48 424.41 360.14 424.30
  Q 357.77 423.49 355.08 423.98
  Q 352.70 424.41 350.63 424.25
  Q 348.01 424.05 345.21 423.77
  Q 343.83 423.64 342.88 422.99
  Q 342.65 422.83 342.36 422.85
  Q 341.91 422.88 341.83 423.31
  A 0.32 0.31 5.0 0 1 341.50 423.58
  Q 341.18 423.57 341.10 423.23
  A 0.50 0.48 -5.6 0 0 340.65 422.87
  Q 337.93 422.73 335.33 421.98
  Q 334.97 421.87 335.19 422.18
  Q 335.22 422.22 335.23 422.27
  Q 335.30 422.51 335.04 422.52
  Q 334.47 422.53 334.16 422.29
  Q 333.76 421.98 333.34 421.81
  Q 331.27 420.96 328.89 421.24
  Q 326.77 421.48 324.58 421.16
  Q 319.82 420.47 314.75 419.96
  A 0.74 0.74 0.0 0 0 313.97 420.90
  Q 314.01 421.03 313.47 421.66"
/>
<path stroke="#54ecd9" vector-effect="non-scaling-stroke" d="
  M 297.60 600.29
  Q 257.87 600.42 218.99 597.90
  Q 217.97 597.83 218.90 597.40
  Q 219.40 597.17 219.78 596.77
  Q 220.26 596.27 220.56 595.64
  Q 221.57 593.56 223.49 592.23
  Q 223.59 592.16 223.59 592.04
  Q 223.60 591.80 223.45 591.83
  Q 222.69 591.95 223.16 591.35
  Q 223.82 590.51 224.85 590.05
  Q 225.24 589.88 225.12 589.47
  Q 224.92 588.80 225.59 588.68
  Q 226.12 588.58 226.33 588.09
  Q 226.56 587.54 227.12 587.38
  Q 227.94 587.14 228.58 586.66
  Q 232.88 583.42 238.27 580.75
  Q 238.39 580.69 238.38 580.56
  Q 238.37 580.43 238.31 580.31
  Q 238.11 579.92 238.54 579.89
  Q 238.78 579.87 239.01 579.78
  Q 239.76 579.48 238.96 579.60
  Q 238.71 579.64 238.47 579.48
  Q 237.97 579.13 238.55 578.96
  L 245.15 576.99"
/>
<path stroke="#41baa9" vector-effect="non-scaling-stroke" d="
  M 216.0853 243.4231
  A 0.88 0.46 -13.6 0 0 215.1218 243.1829
  A 0.88 0.46 -13.6 0 0 214.3747 243.8369
  A 0.88 0.46 -13.6 0 0 215.3382 244.0771
  A 0.88 0.46 -13.6 0 0 216.0853 243.4231"
/>
<path stroke="#41a99b" vector-effect="non-scaling-stroke" d="
  M 211.92 457.35
  Q 212.81 455.77 212.21 454.47
  Q 211.76 453.50 211.44 454.53
  Q 210.99 456.00 211.25 457.50
  Q 211.29 457.73 211.25 457.97
  Q 211.19 458.44 211.63 458.57
  A 0.41 0.40 8.6 0 0 212.16 458.19
  Q 212.16 457.99 212.01 457.87
  Q 211.76 457.64 211.92 457.35"
/>
</g>
<path fill="#017e68" d="
  M 401.79 89.85
  Q 400.22 90.12 402.57 91.76
  Q 403.00 92.06 402.84 92.55
  Q 402.66 93.12 402.11 93.30
  Q 401.23 93.58 401.57 94.35
  Q 401.69 94.63 401.39 94.65
  A 0.50 0.49 0.6 0 0 400.91 95.11
  Q 400.68 98.55 400.24 101.56
  C 400.06 102.77 400.29 104.25 400.77 105.39
  Q 401.41 106.89 399.61 107.19
  Q 399.19 107.26 399.22 106.84
  Q 399.29 105.83 398.38 104.99
  Q 398.04 104.68 398.03 104.23
  Q 397.98 102.98 396.52 103.04
  A 0.83 0.82 -83.9 0 0 395.75 103.67
  L 394.07 110.76
  A 1.13 1.12 15.7 0 0 394.83 112.10
  Q 395.94 112.44 395.65 113.62
  Q 395.37 114.76 394.87 115.77
  Q 394.66 116.19 394.68 116.67
  L 394.92 121.48
  Q 394.95 122.25 394.24 121.96
  L 392.68 121.34
  Q 392.56 121.29 392.54 121.16
  Q 392.51 120.95 392.65 120.95
  Q 393.18 120.98 392.70 120.76
  Q 392.53 120.68 392.35 120.65
  Q 391.97 120.56 391.84 120.92
  Q 391.68 121.33 390.95 121.55
  L 369.91 99.95
  L 327.77 57.08
  A 1.03 1.03 0.0 0 0 326.42 56.98
  Q 324.20 58.61 322.28 60.66
  Q 316.50 66.83 310.05 73.02
  Q 306.60 76.34 303.31 79.82
  L 285.02 99.17
  L 255.03 129.24
  Q 254.35 129.93 255.32 129.93
  L 375.73 130.24
  Q 375.37 130.60 374.43 130.56
  Q 373.79 130.53 374.41 130.69
  Q 374.60 130.74 374.48 130.90
  Q 374.20 131.28 374.66 131.15
  Q 375.00 131.05 375.30 131.22
  Q 375.78 131.49 375.23 131.60
  Q 375.03 131.64 374.82 131.60
  Q 373.98 131.45 374.72 131.89
  Q 374.94 132.02 375.19 132.13
  Q 375.92 132.46 375.33 132.99
  Q 374.65 133.61 375.00 134.45
  Q 375.21 134.97 374.98 135.48
  L 373.72 138.28
  Q 373.63 138.50 373.76 138.70
  Q 373.84 138.82 373.98 138.88
  Q 374.57 139.15 374.15 139.64
  Q 373.75 140.11 373.19 140.07
  Q 372.56 140.03 372.08 140.45
  Q 371.24 141.19 370.11 141.12
  Q 369.12 141.06 369.11 142.06
  L 369.11 142.52
  Q 369.11 143.00 368.83 143.39
  Q 368.12 144.39 368.41 145.77
  Q 368.51 146.26 368.78 145.84
  L 369.76 144.29
  Q 370.10 143.75 370.66 144.05
  Q 371.36 144.43 371.87 145.08
  Q 372.19 145.47 372.67 145.31
  Q 373.30 145.10 373.66 144.52
  A 0.73 0.72 28.6 0 1 374.58 144.25
  Q 375.85 144.83 375.59 146.33
  Q 375.28 148.14 373.65 149.30
  Q 373.25 149.59 373.25 150.09
  Q 373.27 151.24 373.98 152.13
  Q 374.27 152.48 374.07 152.88
  Q 373.75 153.53 373.28 154.00
  Q 373.01 154.28 373.23 154.60
  Q 374.06 155.78 375.44 156.29
  A 1.73 1.73 0.0 0 1 376.54 158.24
  Q 376.39 159.02 376.51 159.73
  A 1.21 1.19 -77.1 0 0 377.00 160.52
  Q 377.77 161.06 378.72 161.23
  A 0.81 0.81 0.0 0 1 379.40 162.02
  Q 379.42 162.95 379.44 163.91
  Q 379.44 164.32 379.72 164.59
  Q 380.02 164.87 380.46 164.81
  Q 382.80 166.30 383.35 169.04
  Q 383.48 169.72 382.88 169.39
  Q 382.25 169.04 381.99 168.43
  A 1.63 1.59 4.0 0 0 381.31 167.67
  Q 380.65 167.29 380.24 166.70
  Q 379.95 166.29 379.49 166.09
  Q 378.43 165.64 378.26 164.57
  Q 378.21 164.25 377.89 164.22
  Q 376.75 164.11 376.59 163.08
  Q 376.53 162.74 376.21 162.62
  Q 375.12 162.24 374.11 161.12
  Q 372.77 159.63 370.42 158.71
  C 367.96 156.67 366.34 154.65 362.75 154.61
  Q 349.98 154.46 337.21 154.53
  L 288.52 154.51
  A 2.88 2.84 21.5 0 0 286.45 155.39
  L 254.43 188.83
  Q 250.37 192.52 247.80 195.30
  Q 237.42 206.56 227.22 217.43
  A 0.43 0.43 0.0 0 0 227.53 218.15
  L 247.74 218.52
  Q 248.14 219.04 248.80 219.22
  Q 249.84 219.50 248.77 219.66
  C 247.34 219.86 246.10 219.86 244.59 219.87
  Q 244.47 219.87 244.59 219.88
  Q 245.56 220.01 246.52 220.21
  Q 246.92 220.29 246.75 220.66
  Q 246.68 220.82 246.49 220.89
  Q 246.20 221.00 246.48 221.11
  Q 246.60 221.16 246.68 221.27
  Q 246.87 221.51 246.65 221.72
  Q 246.05 222.29 245.68 223.07
  Q 245.46 223.53 244.98 223.68
  L 241.64 224.73
  Q 241.23 224.86 240.95 225.20
  L 239.13 227.48
  Q 238.79 227.90 238.26 228.03
  Q 235.58 228.69 233.62 231.21
  Q 233.10 231.87 232.34 232.31
  Q 227.84 234.89 224.53 239.57
  Q 224.22 240.02 223.68 239.94
  Q 222.26 239.73 221.58 241.07
  Q 221.51 241.22 221.37 241.33
  Q 221.23 241.44 221.12 241.29
  Q 220.91 241.00 220.66 241.26
  Q 219.34 242.65 218.87 244.13
  Q 218.74 244.55 218.32 244.64
  Q 218.12 244.69 218.02 244.87
  Q 217.43 245.94 216.16 245.59
  Q 215.82 245.49 215.87 245.84
  Q 215.90 246.07 215.73 246.25
  Q 215.57 246.42 215.36 246.34
  Q 215.10 246.23 215.19 245.97
  Q 215.27 245.71 215.14 245.53
  Q 214.86 245.15 214.52 245.48
  L 214.13 245.85
  Q 213.82 246.14 213.76 245.72
  Q 213.71 245.42 213.52 245.19
  Q 213.65 244.73 214.16 244.39
  A 0.29 0.29 0.0 0 0 214.25 244.00
  Q 214.15 243.85 214.00 243.79
  Q 213.74 243.70 213.50 243.87
  Q 213.28 244.03 213.08 244.30
  Q 212.70 243.33 212.19 242.99
  C 209.33 241.08 206.01 239.19 203.68 236.87
  C 200.17 233.38 196.66 228.39 196.00 223.18
  Q 194.04 207.73 204.69 197.44
  Q 223.79 178.98 238.96 161.71
  Q 240.19 160.31 240.36 158.54
  Q 242.25 158.53 243.34 157.16
  Q 243.69 156.72 243.12 156.74
  Q 241.48 156.79 240.24 158.05
  Q 238.88 156.91 233.65 153.64
  Q 228.72 150.56 224.68 142.87
  C 219.09 132.22 222.82 119.59 230.94 111.37
  Q 266.57 75.30 301.86 38.75
  Q 307.56 32.86 311.41 30.58
  C 317.16 27.18 326.10 24.85 332.90 26.65
  C 341.71 28.98 346.15 33.61 353.74 41.15
  Q 378.04 65.32 401.79 89.85
  Z
  M 216.0853 243.4231
  A 0.88 0.46 -13.6 0 0 215.1218 243.1829
  A 0.88 0.46 -13.6 0 0 214.3747 243.8369
  A 0.88 0.46 -13.6 0 0 215.3382 244.0771
  A 0.88 0.46 -13.6 0 0 216.0853 243.4231
  Z"
/>
<path fill="#8df26b" d="
  M 369.91 99.95
  L 350.45 99.64
  C 332.91 99.77 315.22 100.19 297.68 99.53
  Q 291.56 99.30 285.02 99.17
  L 303.31 79.82
  Q 306.60 76.34 310.05 73.02
  Q 316.50 66.83 322.28 60.66
  Q 324.20 58.61 326.42 56.98
  A 1.03 1.03 0.0 0 1 327.77 57.08
  L 369.91 99.95
  Z"
/>
<path fill="#006c5c" d="
  M 401.79 89.85
  Q 411.74 99.94 421.58 109.92
  Q 431.05 119.51 430.65 133.31
  C 430.29 145.76 423.11 151.45 412.88 156.45
  A 1.54 1.54 0.0 0 0 412.44 158.89
  L 446.75 195.17
  L 446.56 196.14
  Q 446.46 196.64 445.98 196.47
  Q 445.07 196.15 444.54 196.97
  Q 441.37 201.89 438.81 207.27
  Q 438.59 207.72 438.58 208.22
  Q 438.56 208.98 437.82 209.25
  Q 437.60 209.33 437.47 209.52
  Q 437.28 209.83 437.40 210.10
  Q 437.52 210.37 437.24 210.27
  Q 436.59 210.01 436.27 210.73
  Q 435.68 212.00 435.29 213.42
  Q 435.16 213.90 434.79 214.23
  Q 432.31 216.48 432.58 220.01
  A 1.02 1.01 61.6 0 1 432.39 220.66
  L 430.50 223.20
  Q 430.13 223.69 429.53 223.64
  Q 428.68 223.56 427.97 223.99
  A 0.66 0.65 74.6 0 0 427.66 224.55
  Q 427.65 225.02 427.23 225.13
  Q 426.40 225.36 426.39 226.22
  Q 426.39 227.77 424.69 227.97
  Q 424.51 227.99 424.47 228.14
  Q 424.44 228.25 424.65 228.29
  Q 424.84 228.33 424.68 228.44
  L 420.86 231.01
  Q 420.53 231.23 420.18 231.06
  Q 419.76 230.85 419.42 231.18
  Q 419.16 231.43 419.38 231.71
  Q 419.75 232.17 420.26 231.96
  Q 420.52 231.85 420.61 232.12
  Q 420.82 232.77 420.26 233.13
  Q 418.17 234.49 417.80 236.66
  Q 417.52 238.28 416.89 239.74
  Q 415.94 241.92 414.87 243.95
  Q 414.66 244.35 414.22 244.43
  Q 413.75 244.51 413.66 245.01
  Q 413.58 245.46 413.43 245.86
  Q 412.67 247.90 412.07 249.76
  Q 411.69 250.97 411.84 252.62
  Q 411.97 254.01 411.74 255.37
  Q 411.66 255.88 411.28 255.53
  Q 408.14 252.72 407.77 254.68
  Q 403.90 250.78 399.88 246.61
  Q 399.32 246.02 398.70 245.59
  Q 398.06 245.14 397.24 245.09
  Q 390.56 244.65 383.57 244.98
  Q 377.93 245.25 369.52 245.09
  Q 369.00 245.08 368.60 245.43
  Q 368.24 245.74 367.79 245.53
  Q 367.28 245.06 366.75 245.06
  Q 351.84 245.18 336.98 245.11
  L 315.28 245.31
  Q 286.27 245.08 257.24 244.95
  Q 254.96 244.94 253.52 246.39
  Q 243.70 256.38 229.51 272.00
  C 226.47 275.35 223.32 278.39 220.20 281.61
  L 209.89 292.17
  L 179.31 325.27
  Q 178.69 325.94 179.60 325.95
  Q 220.13 326.10 264.77 325.81
  Q 281.06 325.70 290.62 313.12
  Q 291.52 311.94 294.18 307.10
  L 294.48 307.06
  Q 294.80 307.01 294.89 307.31
  C 295.79 310.25 296.54 313.29 298.37 315.82
  Q 305.88 326.17 319.20 326.01
  L 315.47 326.27
  Q 313.33 326.42 314.87 327.91
  Q 317.42 330.37 318.76 333.05
  Q 319.17 333.87 319.82 334.48
  Q 320.79 335.39 321.58 336.36
  Q 321.70 336.51 321.90 336.51
  Q 322.12 336.50 322.07 336.35
  Q 321.90 335.77 322.43 336.03
  Q 324.78 337.16 326.53 339.02
  Q 326.97 339.49 327.60 339.38
  Q 329.43 339.05 329.74 340.96
  A 0.76 0.75 76.7 0 0 330.71 341.56
  Q 332.68 340.96 334.03 342.83
  Q 334.37 343.30 334.84 342.96
  Q 335.50 342.48 336.32 342.61
  Q 337.48 342.81 338.61 342.63
  Q 339.34 342.52 339.76 343.12
  Q 340.42 344.07 341.44 344.63
  Q 341.92 344.89 342.04 345.43
  L 342.69 348.30
  Q 342.80 348.78 343.29 348.85
  Q 344.90 349.07 346.38 349.99
  Q 346.93 350.33 346.30 350.46
  Q 346.10 350.50 346.19 350.68
  Q 346.56 351.33 345.82 351.18
  Q 345.07 351.02 344.42 351.26
  Q 343.82 351.48 344.23 351.97
  Q 344.99 352.89 346.96 352.75
  L 338.82 352.85
  L 317.01 352.85
  L 240.53 353.10
  A 3.38 3.36 -68.4 0 0 238.07 354.17
  C 226.61 366.33 216.56 377.74 203.57 391.07
  Q 199.89 394.85 187.54 408.94
  L 155.06 442.36
  A 1.12 1.11 -67.8 0 0 155.85 444.25
  L 160.95 444.28
  L 160.99 450.23
  Q 160.99 450.73 160.50 450.76
  L 158.87 450.87
  Q 158.37 450.91 158.13 451.35
  Q 157.60 452.32 156.61 452.90
  A 1.64 1.62 -7.4 0 0 155.87 453.85
  Q 155.36 455.70 154.29 456.91
  Q 152.74 458.67 150.76 459.97
  Q 150.40 460.21 150.35 460.64
  Q 150.20 462.09 149.25 463.14
  Q 147.28 465.31 146.25 468.04
  Q 145.94 468.88 146.83 468.87
  Q 147.58 468.87 147.97 469.48
  Q 148.31 470.02 147.75 470.31
  Q 146.71 470.85 145.55 470.42
  Q 145.16 470.27 144.75 470.38
  L 143.36 470.78
  Q 136.41 468.43 131.63 462.99
  C 127.40 458.17 124.94 453.90 124.76 447.28
  C 124.56 440.23 124.94 433.53 128.87 427.90
  Q 132.32 422.96 137.37 417.88
  C 148.78 406.38 160.19 395.05 171.35 382.96
  Q 182.96 370.38 194.42 357.71
  L 200.14 352.14
  Q 200.50 351.79 200.00 351.83
  L 183.49 353.01
  Q 180.08 353.07 176.50 353.07
  Q 166.85 353.08 155.01 352.24
  C 148.40 351.77 141.56 349.09 138.05 343.04
  Q 134.19 336.40 137.03 328.88
  Q 138.41 325.22 143.52 319.78
  Q 163.42 298.57 182.27 279.34
  Q 196.53 264.79 210.14 249.13
  Q 211.40 247.67 213.01 244.76
  Q 213.09 245.24 213.52 245.19
  Q 213.71 245.42 213.76 245.72
  Q 213.82 246.14 214.13 245.85
  L 214.52 245.48
  Q 214.86 245.15 215.14 245.53
  Q 215.27 245.71 215.19 245.97
  Q 215.10 246.23 215.36 246.34
  Q 215.57 246.42 215.73 246.25
  Q 215.90 246.07 215.87 245.84
  Q 215.82 245.49 216.16 245.59
  Q 217.43 245.94 218.02 244.87
  Q 218.12 244.69 218.32 244.64
  Q 218.74 244.55 218.87 244.13
  Q 219.34 242.65 220.66 241.26
  Q 220.91 241.00 221.12 241.29
  Q 221.23 241.44 221.37 241.33
  Q 221.51 241.22 221.58 241.07
  Q 222.26 239.73 223.68 239.94
  Q 224.22 240.02 224.53 239.57
  Q 227.84 234.89 232.34 232.31
  Q 233.10 231.87 233.62 231.21
  Q 235.58 228.69 238.26 228.03
  Q 238.79 227.90 239.13 227.48
  L 240.95 225.20
  Q 241.23 224.86 241.64 224.73
  L 244.98 223.68
  Q 245.46 223.53 245.68 223.07
  Q 246.05 222.29 246.65 221.72
  Q 246.87 221.51 246.68 221.27
  Q 246.60 221.16 246.48 221.11
  Q 246.20 221.00 246.49 220.89
  Q 246.68 220.82 246.75 220.66
  Q 246.92 220.29 246.52 220.21
  Q 245.56 220.01 244.59 219.88
  Q 244.47 219.87 244.59 219.87
  C 246.10 219.86 247.34 219.86 248.77 219.66
  Q 249.84 219.50 248.80 219.22
  Q 248.14 219.04 247.74 218.52
  Q 256.33 218.48 264.92 218.51
  Q 277.54 218.55 280.76 217.42
  Q 290.23 214.09 294.99 204.65
  A 0.90 0.90 0.0 0 1 296.60 204.64
  C 300.47 212.27 307.57 218.69 316.50 218.69
  Q 366.50 218.70 415.50 218.31
  Q 418.71 218.29 426.39 217.94
  Q 426.94 217.92 426.59 217.50
  L 423.73 214.10
  L 398.96 188.46
  L 395.75 185.31
  Q 389.81 179.30 383.75 173.21
  C 379.28 168.71 374.94 163.52 370.42 158.71
  Q 372.77 159.63 374.11 161.12
  Q 375.12 162.24 376.21 162.62
  Q 376.53 162.74 376.59 163.08
  Q 376.75 164.11 377.89 164.22
  Q 378.21 164.25 378.26 164.57
  Q 378.43 165.64 379.49 166.09
  Q 379.95 166.29 380.24 166.70
  Q 380.65 167.29 381.31 167.67
  A 1.63 1.59 4.0 0 1 381.99 168.43
  Q 382.25 169.04 382.88 169.39
  Q 383.48 169.72 383.35 169.04
  Q 382.80 166.30 380.46 164.81
  Q 380.02 164.87 379.72 164.59
  Q 379.44 164.32 379.44 163.91
  Q 379.42 162.95 379.40 162.02
  A 0.81 0.81 0.0 0 0 378.72 161.23
  Q 377.77 161.06 377.00 160.52
  A 1.21 1.19 -77.1 0 1 376.51 159.73
  Q 376.39 159.02 376.54 158.24
  A 1.73 1.73 0.0 0 0 375.44 156.29
  Q 374.06 155.78 373.23 154.60
  Q 373.01 154.28 373.28 154.00
  Q 373.75 153.53 374.07 152.88
  Q 374.27 152.48 373.98 152.13
  Q 373.27 151.24 373.25 150.09
  Q 373.25 149.59 373.65 149.30
  Q 375.28 148.14 375.59 146.33
  Q 375.85 144.83 374.58 144.25
  A 0.73 0.72 28.6 0 0 373.66 144.52
  Q 373.30 145.10 372.67 145.31
  Q 372.19 145.47 371.87 145.08
  Q 371.36 144.43 370.66 144.05
  Q 370.10 143.75 369.76 144.29
  L 368.78 145.84
  Q 368.51 146.26 368.41 145.77
  Q 368.12 144.39 368.83 143.39
  Q 369.11 143.00 369.11 142.52
  L 369.11 142.06
  Q 369.12 141.06 370.11 141.12
  Q 371.24 141.19 372.08 140.45
  Q 372.56 140.03 373.19 140.07
  Q 373.75 140.11 374.15 139.64
  Q 374.57 139.15 373.98 138.88
  Q 373.84 138.82 373.76 138.70
  Q 373.63 138.50 373.72 138.28
  L 374.98 135.48
  Q 375.21 134.97 375.00 134.45
  Q 374.65 133.61 375.33 132.99
  Q 375.92 132.46 375.19 132.13
  Q 374.94 132.02 374.72 131.89
  Q 373.98 131.45 374.82 131.60
  Q 375.03 131.64 375.23 131.60
  Q 375.78 131.49 375.30 131.22
  Q 375.00 131.05 374.66 131.15
  Q 374.20 131.28 374.48 130.90
  Q 374.60 130.74 374.41 130.69
  Q 373.79 130.53 374.43 130.56
  Q 375.37 130.60 375.73 130.24
  L 398.38 129.89
  Q 398.94 129.88 398.55 129.49
  L 396.80 127.73
  L 390.95 121.55
  Q 391.68 121.33 391.84 120.92
  Q 391.97 120.56 392.35 120.65
  Q 392.53 120.68 392.70 120.76
  Q 393.18 120.98 392.65 120.95
  Q 392.51 120.95 392.54 121.16
  Q 392.56 121.29 392.68 121.34
  L 394.24 121.96
  Q 394.95 122.25 394.92 121.48
  L 394.68 116.67
  Q 394.66 116.19 394.87 115.77
  Q 395.37 114.76 395.65 113.62
  Q 395.94 112.44 394.83 112.10
  A 1.13 1.12 15.7 0 1 394.07 110.76
  L 395.75 103.67
  A 0.83 0.82 -83.9 0 1 396.52 103.04
  Q 397.98 102.98 398.03 104.23
  Q 398.04 104.68 398.38 104.99
  Q 399.29 105.83 399.22 106.84
  Q 399.19 107.26 399.61 107.19
  Q 401.41 106.89 400.77 105.39
  C 400.29 104.25 400.06 102.77 400.24 101.56
  Q 400.68 98.55 400.91 95.11
  A 0.50 0.49 0.6 0 1 401.39 94.65
  Q 401.69 94.63 401.57 94.35
  Q 401.23 93.58 402.11 93.30
  Q 402.66 93.12 402.84 92.55
  Q 403.00 92.06 402.57 91.76
  Q 400.22 90.12 401.79 89.85
  Z"
/>
<path fill="#60e948" d="
  M 285.02 99.17
  Q 291.56 99.30 297.68 99.53
  C 315.22 100.19 332.91 99.77 350.45 99.64
  L 343.99 99.79
  A 0.53 0.52 74.0 0 0 343.56 100.58
  Q 346.47 105.52 349.81 110.30
  C 355.87 118.99 364.18 125.21 374.66 126.73
  Q 378.23 127.25 381.25 128.03
  Q 386.91 129.49 396.80 127.73
  L 398.55 129.49
  Q 398.94 129.88 398.38 129.89
  L 375.73 130.24
  L 255.32 129.93
  Q 254.35 129.93 255.03 129.24
  L 285.02 99.17
  Z"
/>
<path fill="#01b542" d="
  M 350.45 99.64
  L 369.91 99.95
  L 390.95 121.55
  L 396.80 127.73
  Q 386.91 129.49 381.25 128.03
  Q 378.23 127.25 374.66 126.73
  C 364.18 125.21 355.87 118.99 349.81 110.30
  Q 346.47 105.52 343.56 100.58
  A 0.53 0.52 74.0 0 1 343.99 99.79
  L 350.45 99.64
  Z"
/>
<path fill="#8df26b" d="
  M 337.21 154.53
  Q 337.89 156.07 338.31 157.66
  Q 338.85 159.74 339.34 160.77
  Q 348.41 179.89 369.75 183.36
  Q 376.31 184.43 395.75 185.31
  L 398.96 188.46
  L 348.11 188.76
  L 254.43 188.83
  L 286.45 155.39
  A 2.88 2.84 21.5 0 1 288.52 154.51
  L 337.21 154.53
  Z"
/>
<path fill="#60e948" d="
  M 337.21 154.53
  Q 349.98 154.46 362.75 154.61
  C 366.34 154.65 367.96 156.67 370.42 158.71
  C 374.94 163.52 379.28 168.71 383.75 173.21
  Q 389.81 179.30 395.75 185.31
  Q 376.31 184.43 369.75 183.36
  Q 348.41 179.89 339.34 160.77
  Q 338.85 159.74 338.31 157.66
  Q 337.89 156.07 337.21 154.53
  Z"
/>
<path fill="#80f5e9" d="
  M 240.36 158.54
  Q 240.30 158.30 240.24 158.05
  Q 241.48 156.79 243.12 156.74
  Q 243.69 156.72 243.34 157.16
  Q 242.25 158.53 240.36 158.54
  Z"
/>
<path fill="#01b542" d="
  M 398.96 188.46
  L 423.73 214.10
  Q 421.32 215.50 418.08 215.42
  Q 413.02 215.29 412.42 215.35
  Q 406.96 215.84 401.50 216.39
  Q 399.14 216.63 395.81 215.96
  Q 393.08 215.42 390.23 215.03
  Q 379.76 213.62 370.33 207.82
  C 367.82 206.27 365.72 204.31 363.37 202.56
  C 360.44 200.37 357.99 197.78 355.50 195.05
  Q 354.24 193.67 352.09 192.20
  Q 349.88 190.70 348.11 188.76
  L 398.96 188.46
  Z"
/>
<path fill="#60e948" d="
  M 348.11 188.76
  Q 349.88 190.70 352.09 192.20
  Q 354.24 193.67 355.50 195.05
  C 357.99 197.78 360.44 200.37 363.37 202.56
  C 365.72 204.31 367.82 206.27 370.33 207.82
  Q 379.76 213.62 390.23 215.03
  Q 393.08 215.42 395.81 215.96
  Q 399.14 216.63 401.50 216.39
  Q 406.96 215.84 412.42 215.35
  Q 413.02 215.29 418.08 215.42
  Q 421.32 215.50 423.73 214.10
  L 426.59 217.50
  Q 426.94 217.92 426.39 217.94
  Q 418.71 218.29 415.50 218.31
  Q 366.50 218.70 316.50 218.69
  C 307.57 218.69 300.47 212.27 296.60 204.64
  A 0.90 0.90 0.0 0 0 294.99 204.65
  Q 290.23 214.09 280.76 217.42
  Q 277.54 218.55 264.92 218.51
  Q 256.33 218.48 247.74 218.52
  L 227.53 218.15
  A 0.43 0.43 0.0 0 1 227.22 217.43
  Q 237.42 206.56 247.80 195.30
  Q 250.37 192.52 254.43 188.83
  L 348.11 188.76
  Z"
/>
<path fill="#015c4d" d="
  M 446.75 195.17
  C 461.57 209.19 461.54 232.10 441.49 241.58
  C 440.57 242.02 439.86 242.44 439.06 243.08
  A 1.74 1.74 0.0 0 0 438.88 245.64
  C 446.85 254.01 454.40 262.84 462.43 271.04
  Q 485.56 294.66 508.97 319.22
  C 512.66 323.09 515.88 327.15 516.55 332.65
  C 518.08 345.40 507.24 351.53 496.00 351.82
  Q 475.73 352.34 455.46 352.71
  Q 454.27 351.94 453.34 352.18
  Q 452.76 352.33 453.17 352.76
  Q 453.85 353.47 455.02 353.55
  L 454.73 353.85
  Q 454.39 354.20 454.80 354.46
  C 455.62 354.96 455.78 355.84 456.47 356.54
  C 470.49 371.07 484.46 385.94 498.78 400.31
  Q 508.69 410.26 519.70 422.92
  Q 529.20 433.85 527.18 446.88
  Q 525.71 456.30 519.97 462.93
  Q 512.58 471.48 501.38 471.67
  Q 484.15 471.96 468.49 472.18
  Q 460.04 472.30 452.53 469.97
  Q 444.25 467.40 442.05 458.06
  L 441.74 452.98
  Q 441.70 452.39 441.17 452.65
  Q 440.90 452.77 440.88 453.07
  Q 440.31 459.35 437.28 464.46
  Q 436.28 466.15 433.94 467.87
  Q 432.01 469.29 430.00 470.79
  Q 425.16 472.70 421.50 472.76
  Q 404.45 473.05 364.25 472.52
  Q 361.97 472.50 358.84 473.06
  C 357.17 473.36 356.56 474.17 356.45 475.84
  Q 356.09 480.96 356.04 485.00
  Q 355.65 517.42 355.77 540.00
  Q 355.81 547.74 356.21 570.43
  Q 355.11 585.26 355.67 600.37
  L 327.29 600.47
  C 327.72 597.49 327.55 594.58 327.56 591.55
  C 327.69 566.40 327.40 542.31 327.62 514.25
  Q 327.69 506.54 327.19 499.25
  Q 327.03 496.89 325.69 494.43
  Q 325.35 493.75 326.20 493.47
  A 1.20 1.18 83.0 0 0 327.00 492.43
  Q 327.66 483.00 326.89 473.35
  A 1.83 1.82 87.0 0 0 325.02 471.66
  Q 313.08 471.99 300.75 472.03
  Q 298.78 472.03 296.82 472.62
  L 281.55 472.77
  Q 279.79 472.92 278.01 472.84
  Q 275.48 472.73 274.49 472.75
  Q 259.19 473.12 245.25 473.16
  Q 235.50 473.19 226.99 471.97
  Q 217.78 470.66 212.74 460.77
  Q 211.91 459.15 210.19 461.01
  Q 210.34 460.40 210.31 460.03
  Q 210.23 459.17 209.79 459.92
  Q 209.49 460.44 209.42 461.05
  A 0.94 0.93 -12.9 0 1 208.98 461.74
  Q 208.23 462.18 208.81 463.05
  C 204.65 470.03 197.49 472.06 189.75 472.14
  Q 175.13 472.30 160.50 472.28
  Q 150.96 472.27 143.36 470.78
  L 144.75 470.38
  Q 145.16 470.27 145.55 470.42
  Q 146.71 470.85 147.75 470.31
  Q 148.31 470.02 147.97 469.48
  Q 147.58 468.87 146.83 468.87
  Q 145.94 468.88 146.25 468.04
  Q 147.28 465.31 149.25 463.14
  Q 150.20 462.09 150.35 460.64
  Q 150.40 460.21 150.76 459.97
  Q 152.74 458.67 154.29 456.91
  Q 155.36 455.70 155.87 453.85
  A 1.64 1.62 -7.4 0 1 156.61 452.90
  Q 157.60 452.32 158.13 451.35
  Q 158.37 450.91 158.87 450.87
  L 160.50 450.76
  Q 160.99 450.73 160.99 450.23
  L 160.95 444.28
  C 182.40 444.38 203.84 444.02 225.28 444.28
  Q 254.45 444.62 283.64 444.27
  C 287.77 444.22 292.40 443.98 296.22 442.84
  Q 309.20 438.95 313.22 425.80
  Q 313.38 425.28 313.66 425.01
  Q 314.12 424.57 314.56 424.63
  C 318.95 435.45 329.15 444.14 341.00 444.22
  Q 390.70 444.53 498.61 444.23
  Q 499.19 444.23 498.77 443.83
  L 492.72 438.03
  L 466.38 408.96
  Q 441.02 383.46 418.61 356.64
  Q 415.92 353.43 411.51 353.40
  Q 394.57 353.31 384.25 353.38
  Q 378.03 353.43 370.81 353.06
  L 346.96 352.75
  Q 344.99 352.89 344.23 351.97
  Q 343.82 351.48 344.42 351.26
  Q 345.07 351.02 345.82 351.18
  Q 346.56 351.33 346.19 350.68
  Q 346.10 350.50 346.30 350.46
  Q 346.93 350.33 346.38 349.99
  Q 344.90 349.07 343.29 348.85
  Q 342.80 348.78 342.69 348.30
  L 342.04 345.43
  Q 341.92 344.89 341.44 344.63
  Q 340.42 344.07 339.76 343.12
  Q 339.34 342.52 338.61 342.63
  Q 337.48 342.81 336.32 342.61
  Q 335.50 342.48 334.84 342.96
  Q 334.37 343.30 334.03 342.83
  Q 332.68 340.96 330.71 341.56
  A 0.76 0.75 76.7 0 1 329.74 340.96
  Q 329.43 339.05 327.60 339.38
  Q 326.97 339.49 326.53 339.02
  Q 324.78 337.16 322.43 336.03
  Q 321.90 335.77 322.07 336.35
  Q 322.12 336.50 321.90 336.51
  Q 321.70 336.51 321.58 336.36
  Q 320.79 335.39 319.82 334.48
  Q 319.17 333.87 318.76 333.05
  Q 317.42 330.37 314.87 327.91
  Q 313.33 326.42 315.47 326.27
  L 319.20 326.01
  Q 331.10 326.08 343.01 326.07
  Q 348.86 326.06 353.67 323.91
  Q 356.41 322.69 359.34 319.45
  Q 362.11 316.38 364.90 313.32
  Q 374.44 325.82 389.24 325.80
  Q 407.22 325.78 425.25 326.01
  C 441.46 326.22 457.44 325.85 473.21 325.65
  A 0.56 0.56 0.0 0 0 473.63 324.73
  L 470.55 321.10
  L 444.01 292.76
  Q 433.60 282.12 423.57 271.97
  C 418.02 266.35 412.97 260.56 407.77 254.68
  Q 408.14 252.72 411.28 255.53
  Q 411.66 255.88 411.74 255.37
  Q 411.97 254.01 411.84 252.62
  Q 411.69 250.97 412.07 249.76
  Q 412.67 247.90 413.43 245.86
  Q 413.58 245.46 413.66 245.01
  Q 413.75 244.51 414.22 244.43
  Q 414.66 244.35 414.87 243.95
  Q 415.94 241.92 416.89 239.74
  Q 417.52 238.28 417.80 236.66
  Q 418.17 234.49 420.26 233.13
  Q 420.82 232.77 420.61 232.12
  Q 420.52 231.85 420.26 231.96
  Q 419.75 232.17 419.38 231.71
  Q 419.16 231.43 419.42 231.18
  Q 419.76 230.85 420.18 231.06
  Q 420.53 231.23 420.86 231.01
  L 424.68 228.44
  Q 424.84 228.33 424.65 228.29
  Q 424.44 228.25 424.47 228.14
  Q 424.51 227.99 424.69 227.97
  Q 426.39 227.77 426.39 226.22
  Q 426.40 225.36 427.23 225.13
  Q 427.65 225.02 427.66 224.55
  A 0.66 0.65 74.6 0 1 427.97 223.99
  Q 428.68 223.56 429.53 223.64
  Q 430.13 223.69 430.50 223.20
  L 432.39 220.66
  A 1.02 1.01 61.6 0 0 432.58 220.01
  Q 432.31 216.48 434.79 214.23
  Q 435.16 213.90 435.29 213.42
  Q 435.68 212.00 436.27 210.73
  Q 436.59 210.01 437.24 210.27
  Q 437.52 210.37 437.40 210.10
  Q 437.28 209.83 437.47 209.52
  Q 437.60 209.33 437.82 209.25
  Q 438.56 208.98 438.58 208.22
  Q 438.59 207.72 438.81 207.27
  Q 441.37 201.89 444.54 196.97
  Q 445.07 196.15 445.98 196.47
  Q 446.46 196.64 446.56 196.14
  L 446.75 195.17
  Z
  M 211.92 457.35
  Q 212.81 455.77 212.21 454.47
  Q 211.76 453.50 211.44 454.53
  Q 210.99 456.00 211.25 457.50
  Q 211.29 457.73 211.25 457.97
  Q 211.19 458.44 211.63 458.57
  A 0.41 0.40 8.6 0 0 212.16 458.19
  Q 212.16 457.99 212.01 457.87
  Q 211.76 457.64 211.92 457.35
  Z"
/>
<ellipse fill="#80f5e9" cx="0.00" cy="0.00" transform="translate(215.23,243.63) rotate(-13.6)" rx="0.88" ry="0.46"/>
<path fill="#80f5e9" d="
  M 213.52 245.19
  Q 213.09 245.24 213.01 244.76
  L 213.08 244.30
  Q 213.28 244.03 213.50 243.87
  Q 213.74 243.70 214.00 243.79
  Q 214.15 243.85 214.25 244.00
  A 0.29 0.29 0.0 0 1 214.16 244.39
  Q 213.65 244.73 213.52 245.19
  Z"
/>
<path fill="#01b542" d="
  M 367.79 245.53
  Q 370.56 254.21 374.10 258.40
  Q 378.20 263.23 381.86 268.41
  Q 381.15 268.31 380.84 268.86
  Q 378.72 272.59 375.81 276.02
  Q 373.51 278.74 370.40 279.43
  Q 363.59 280.94 358.21 277.86
  C 349.30 272.74 343.35 263.68 340.02 253.99
  Q 338.56 249.75 336.98 245.11
  Q 351.84 245.18 366.75 245.06
  Q 367.28 245.06 367.79 245.53
  Z"
/>
<path fill="#018e6f" d="
  M 407.77 254.68
  C 412.97 260.56 418.02 266.35 423.57 271.97
  Q 433.60 282.12 444.01 292.76
  L 405.75 292.32
  Q 405.49 292.00 405.29 292.26
  Q 405.50 291.93 405.28 291.75
  Q 392.07 280.97 381.86 268.41
  Q 378.20 263.23 374.10 258.40
  Q 370.56 254.21 367.79 245.53
  Q 368.24 245.74 368.60 245.43
  Q 369.00 245.08 369.52 245.09
  Q 377.93 245.25 383.57 244.98
  Q 390.56 244.65 397.24 245.09
  Q 398.06 245.14 398.70 245.59
  Q 399.32 246.02 399.88 246.61
  Q 403.90 250.78 407.77 254.68
  Z"
/>
<path fill="#60e948" d="
  M 315.28 245.31
  Q 313.30 259.59 304.25 270.50
  C 301.64 273.66 300.08 275.66 296.89 277.10
  Q 296.20 277.41 295.53 277.20
  Q 295.00 277.03 294.46 277.17
  Q 293.14 277.49 292.08 278.27
  Q 291.79 278.48 291.44 278.53
  Q 288.65 278.92 286.08 278.34
  Q 284.26 277.93 282.42 277.72
  Q 280.58 277.52 279.04 276.29
  Q 275.23 273.25 273.53 268.58
  A 0.71 0.71 0.0 0 0 272.30 268.38
  Q 265.67 276.88 258.45 284.94
  C 257.20 286.33 255.82 287.51 254.32 288.67
  A 1.34 1.18 -25.1 0 1 252.23 288.06
  Q 252.13 287.43 251.53 287.04
  Q 251.00 286.69 250.47 287.06
  Q 250.21 287.24 249.98 287.01
  Q 249.75 286.78 249.45 286.69
  Q 239.94 283.83 229.95 279.35
  Q 229.51 279.15 229.03 279.25
  Q 227.96 279.47 226.90 278.95
  Q 226.52 278.77 226.19 279.02
  Q 225.66 279.43 225.30 278.87
  Q 225.05 278.50 224.69 278.76
  Q 224.30 279.05 223.82 279.15
  Q 223.33 279.25 223.01 279.64
  Q 221.93 281.02 220.20 281.61
  C 223.32 278.39 226.47 275.35 229.51 272.00
  Q 243.70 256.38 253.52 246.39
  Q 254.96 244.94 257.24 244.95
  Q 286.27 245.08 315.28 245.31
  Z"
/>
<path fill="#8df26b" d="
  M 315.28 245.31
  L 336.98 245.11
  Q 338.56 249.75 340.02 253.99
  C 343.35 263.68 349.30 272.74 358.21 277.86
  Q 363.59 280.94 370.40 279.43
  Q 373.51 278.74 375.81 276.02
  Q 378.72 272.59 380.84 268.86
  Q 381.15 268.31 381.86 268.41
  Q 392.07 280.97 405.28 291.75
  Q 405.50 291.93 405.29 292.26
  L 354.82 292.20
  L 300.47 292.30
  L 210.23 292.91
  Q 209.94 292.84 209.89 292.17
  L 220.20 281.61
  Q 221.93 281.02 223.01 279.64
  Q 223.33 279.25 223.82 279.15
  Q 224.30 279.05 224.69 278.76
  Q 225.05 278.50 225.30 278.87
  Q 225.66 279.43 226.19 279.02
  Q 226.52 278.77 226.90 278.95
  Q 227.96 279.47 229.03 279.25
  Q 229.51 279.15 229.95 279.35
  Q 239.94 283.83 249.45 286.69
  Q 249.75 286.78 249.98 287.01
  Q 250.21 287.24 250.47 287.06
  Q 251.00 286.69 251.53 287.04
  Q 252.13 287.43 252.23 288.06
  A 1.34 1.18 -25.1 0 0 254.32 288.67
  C 255.82 287.51 257.20 286.33 258.45 284.94
  Q 265.67 276.88 272.30 268.38
  A 0.71 0.71 0.0 0 1 273.53 268.58
  Q 275.23 273.25 279.04 276.29
  Q 280.58 277.52 282.42 277.72
  Q 284.26 277.93 286.08 278.34
  Q 288.65 278.92 291.44 278.53
  Q 291.79 278.48 292.08 278.27
  Q 293.14 277.49 294.46 277.17
  Q 295.00 277.03 295.53 277.20
  Q 296.20 277.41 296.89 277.10
  C 300.08 275.66 301.64 273.66 304.25 270.50
  Q 313.30 259.59 315.28 245.31
  Z"
/>
<path fill="#01b542" d="
  M 405.29 292.26
  Q 405.49 292.00 405.75 292.32
  Q 405.11 292.91 405.39 293.50
  Q 405.86 294.52 406.81 295.34
  Q 412.91 300.60 419.00 305.82
  Q 424.25 310.32 429.02 312.21
  Q 433.24 313.88 437.05 315.61
  Q 440.99 317.40 445.63 318.42
  Q 451.21 319.64 454.82 319.77
  Q 456.86 319.84 459.26 320.27
  C 461.43 320.66 462.88 320.63 464.81 320.63
  Q 465.61 320.63 467.64 321.02
  Q 469.02 321.28 470.55 321.10
  L 473.63 324.73
  A 0.56 0.56 0.0 0 1 473.21 325.65
  C 457.44 325.85 441.46 326.22 425.25 326.01
  Q 407.22 325.78 389.24 325.80
  Q 374.44 325.82 364.90 313.32
  Q 363.60 311.34 361.27 308.49
  Q 357.54 303.96 355.18 295.49
  Q 355.05 295.02 355.17 294.54
  Q 355.62 292.72 354.82 292.20
  L 405.29 292.26
  Z"
/>
<path fill="#60e948" d="
  M 209.89 292.17
  Q 209.94 292.84 210.23 292.91
  Q 209.70 293.59 209.90 294.03
  Q 210.09 294.44 210.54 294.45
  Q 212.34 294.49 213.78 295.43
  Q 215.01 296.23 216.51 296.66
  Q 220.53 297.82 224.52 299.21
  A 1.46 1.46 0.0 0 0 225.46 299.21
  Q 225.89 299.07 226.32 299.18
  Q 232.04 300.77 237.66 302.69
  Q 239.00 303.15 240.37 302.75
  Q 243.20 301.94 246.12 300.45
  C 247.40 299.79 248.70 299.78 250.10 299.65
  Q 251.48 299.53 252.95 299.95
  Q 254.96 300.51 256.96 300.55
  Q 257.04 300.55 257.10 300.60
  Q 257.25 300.72 257.33 300.89
  A 0.63 0.63 0.0 0 0 257.83 301.25
  Q 262.96 301.79 268.23 302.18
  Q 273.74 302.59 280.10 304.01
  Q 281.47 304.32 282.86 304.28
  C 285.03 304.22 286.72 305.64 288.85 304.36
  A 0.54 0.54 0.0 0 1 289.62 304.59
  Q 290.09 305.54 290.99 304.96
  A 1.24 1.18 26.8 0 1 291.61 304.77
  Q 292.86 304.72 292.90 305.25
  Q 292.92 305.64 293.26 305.43
  Q 293.68 305.17 294.23 305.17
  Q 294.60 305.17 294.64 305.54
  Q 294.67 305.77 294.77 305.97
  Q 294.37 306.45 294.18 307.10
  Q 291.52 311.94 290.62 313.12
  Q 281.06 325.70 264.77 325.81
  Q 220.13 326.10 179.60 325.95
  Q 178.69 325.94 179.31 325.27
  L 209.89 292.17
  Z"
/>
<path fill="#04d141" d="
  M 300.47 292.30
  L 299.16 292.48
  Q 298.63 292.54 298.59 293.08
  Q 298.12 299.96 294.77 305.97
  Q 294.67 305.77 294.64 305.54
  Q 294.60 305.17 294.23 305.17
  Q 293.68 305.17 293.26 305.43
  Q 292.92 305.64 292.90 305.25
  Q 292.86 304.72 291.61 304.77
  A 1.24 1.18 26.8 0 0 290.99 304.96
  Q 290.09 305.54 289.62 304.59
  A 0.54 0.54 0.0 0 0 288.85 304.36
  C 286.72 305.64 285.03 304.22 282.86 304.28
  Q 281.47 304.32 280.10 304.01
  Q 273.74 302.59 268.23 302.18
  Q 262.96 301.79 257.83 301.25
  A 0.63 0.63 0.0 0 1 257.33 300.89
  Q 257.25 300.72 257.10 300.60
  Q 257.04 300.55 256.96 300.55
  Q 254.96 300.51 252.95 299.95
  Q 251.48 299.53 250.10 299.65
  C 248.70 299.78 247.40 299.79 246.12 300.45
  Q 243.20 301.94 240.37 302.75
  Q 239.00 303.15 237.66 302.69
  Q 232.04 300.77 226.32 299.18
  Q 225.89 299.07 225.46 299.21
  A 1.46 1.46 0.0 0 1 224.52 299.21
  Q 220.53 297.82 216.51 296.66
  Q 215.01 296.23 213.78 295.43
  Q 212.34 294.49 210.54 294.45
  Q 210.09 294.44 209.90 294.03
  Q 209.70 293.59 210.23 292.91
  L 300.47 292.30
  Z"
/>
<path fill="#018e6f" d="
  M 300.47 292.30
  L 354.82 292.20
  Q 355.62 292.72 355.17 294.54
  Q 355.05 295.02 355.18 295.49
  Q 357.54 303.96 361.27 308.49
  Q 363.60 311.34 364.90 313.32
  Q 362.11 316.38 359.34 319.45
  Q 356.41 322.69 353.67 323.91
  Q 348.86 326.06 343.01 326.07
  Q 331.10 326.08 319.20 326.01
  Q 305.88 326.17 298.37 315.82
  C 296.54 313.29 295.79 310.25 294.89 307.31
  Q 294.80 307.01 294.48 307.06
  L 294.18 307.10
  Q 294.37 306.45 294.77 305.97
  Q 298.12 299.96 298.59 293.08
  Q 298.63 292.54 299.16 292.48
  L 300.47 292.30
  Z"
/>
<path fill="#01934a" d="
  M 444.01 292.76
  L 470.55 321.10
  Q 469.02 321.28 467.64 321.02
  Q 465.61 320.63 464.81 320.63
  C 462.88 320.63 461.43 320.66 459.26 320.27
  Q 456.86 319.84 454.82 319.77
  Q 451.21 319.64 445.63 318.42
  Q 440.99 317.40 437.05 315.61
  Q 433.24 313.88 429.02 312.21
  Q 424.25 310.32 419.00 305.82
  Q 412.91 300.60 406.81 295.34
  Q 405.86 294.52 405.39 293.50
  Q 405.11 292.91 405.75 292.32
  L 444.01 292.76
  Z"
/>
<path fill="#80f5e9" d="
  M 194.42 357.71
  Q 194.59 356.52 195.08 355.44
  Q 195.16 355.25 195.15 355.04
  Q 195.14 354.90 195.06 354.78
  Q 194.99 354.66 194.84 354.64
  L 183.49 353.01
  L 200.00 351.83
  Q 200.50 351.79 200.14 352.14
  L 194.42 357.71
  Z"
/>
<path fill="#80f5e9" d="
  M 455.46 352.71
  Q 455.48 353.14 455.02 353.55
  Q 453.85 353.47 453.17 352.76
  Q 452.76 352.33 453.34 352.18
  Q 454.27 351.94 455.46 352.71
  Z"
/>
<path fill="#04d141" d="
  M 317.01 352.85
  Q 315.91 356.90 315.14 360.95
  Q 314.60 363.83 313.68 366.18
  Q 312.69 368.70 311.69 371.24
  Q 307.32 380.31 299.81 387.09
  C 298.62 388.16 297.01 388.80 295.63 389.60
  Q 294.03 390.53 292.18 390.41
  Q 289.83 390.27 287.64 390.42
  Q 285.46 390.57 283.54 389.55
  Q 276.58 385.87 273.26 378.80
  A 0.31 0.31 0.0 0 0 272.73 378.75
  Q 264.36 390.14 254.50 400.60
  C 251.82 403.45 248.94 405.98 246.13 408.78
  L 187.54 408.94
  Q 199.89 394.85 203.57 391.07
  C 216.56 377.74 226.61 366.33 238.07 354.17
  A 3.38 3.36 -68.4 0 1 240.53 353.10
  L 317.01 352.85
  Z"
/>
<path fill="#60e948" d="
  M 338.82 352.85
  Q 340.56 365.88 347.36 377.22
  Q 346.37 377.65 345.73 377.18
  Q 345.34 376.90 344.87 376.88
  Q 343.97 376.83 343.16 376.43
  Q 342.73 376.23 342.26 376.15
  L 311.69 371.24
  Q 312.69 368.70 313.68 366.18
  Q 314.60 363.83 315.14 360.95
  Q 315.91 356.90 317.01 352.85
  L 338.82 352.85
  Z"
/>
<path fill="#01b542" d="
  M 338.82 352.85
  L 346.96 352.75
  L 370.81 353.06
  Q 372.46 363.03 377.54 370.71
  Q 381.30 376.38 382.60 378.72
  Q 379.19 385.13 375.51 388.02
  Q 372.43 390.43 367.58 390.88
  Q 363.77 391.23 359.90 389.24
  C 354.18 386.29 351.05 382.62 347.36 377.22
  Q 340.56 365.88 338.82 352.85
  Z"
/>
<path fill="#017e68" d="
  M 370.81 353.06
  Q 378.03 353.43 384.25 353.38
  Q 394.57 353.31 411.51 353.40
  Q 415.92 353.43 418.61 356.64
  Q 441.02 383.46 466.38 408.96
  L 409.30 408.62
  Q 409.44 408.64 409.51 408.49
  A 0.31 0.31 0.0 0 0 409.42 408.14
  Q 394.15 395.59 382.60 378.72
  Q 381.30 376.38 377.54 370.71
  Q 372.46 363.03 370.81 353.06
  Z"
/>
<path fill="#8df26b" d="
  M 347.36 377.22
  C 351.05 382.62 354.18 386.29 359.90 389.24
  Q 363.77 391.23 367.58 390.88
  Q 372.43 390.43 375.51 388.02
  Q 379.19 385.13 382.60 378.72
  Q 394.15 395.59 409.42 408.14
  A 0.31 0.31 0.0 0 1 409.51 408.49
  Q 409.44 408.64 409.30 408.62
  Q 408.97 408.87 408.28 408.74
  L 311.50 408.64
  L 246.13 408.78
  C 248.94 405.98 251.82 403.45 254.50 400.60
  Q 264.36 390.14 272.73 378.75
  A 0.31 0.31 0.0 0 1 273.26 378.80
  Q 276.58 385.87 283.54 389.55
  Q 285.46 390.57 287.64 390.42
  Q 289.83 390.27 292.18 390.41
  Q 294.03 390.53 295.63 389.60
  C 297.01 388.80 298.62 388.16 299.81 387.09
  Q 307.32 380.31 311.69 371.24
  L 342.26 376.15
  Q 342.73 376.23 343.16 376.43
  Q 343.97 376.83 344.87 376.88
  Q 345.34 376.90 345.73 377.18
  Q 346.37 377.65 347.36 377.22
  Z"
/>
<path fill="#018e6f" d="
  M 187.54 408.94
  L 246.13 408.78
  L 311.50 408.64
  Q 310.49 415.67 313.47 421.66
  L 314.56 424.63
  Q 314.12 424.57 313.66 425.01
  Q 313.38 425.28 313.22 425.80
  Q 309.20 438.95 296.22 442.84
  C 292.40 443.98 287.77 444.22 283.64 444.27
  Q 254.45 444.62 225.28 444.28
  C 203.84 444.02 182.40 444.38 160.95 444.28
  L 155.85 444.25
  A 1.12 1.11 -67.8 0 1 155.06 442.36
  L 187.54 408.94
  Z"
/>
<path fill="#01b542" d="
  M 311.50 408.64
  L 408.28 408.74
  Q 408.14 410.89 411.89 411.10
  Q 412.44 411.13 412.85 411.49
  C 417.39 415.47 421.40 420.23 426.73 423.29
  C 429.88 425.11 432.71 427.22 436.04 428.81
  Q 440.46 430.92 444.86 433.17
  Q 438.67 431.60 432.19 431.32
  C 431.19 431.27 430.27 431.99 429.33 431.30
  A 1.43 1.42 -37.2 0 0 427.99 431.12
  Q 426.53 431.68 425.22 430.88
  Q 424.67 430.54 425.22 430.20
  L 425.51 430.02
  Q 426.04 429.69 425.44 429.53
  Q 422.09 428.66 417.09 428.18
  Q 412.09 427.71 407.15 427.58
  Q 403.93 427.49 400.85 427.27
  Q 397.70 427.05 394.59 426.51
  Q 394.54 426.50 394.50 426.47
  Q 394.38 426.40 394.67 426.25
  Q 394.72 426.22 394.67 426.21
  Q 391.63 425.95 388.53 425.86
  Q 385.51 425.77 382.55 425.43
  Q 373.98 424.46 365.51 424.11
  Q 365.41 424.11 365.46 424.19
  Q 365.53 424.31 365.48 424.45
  Q 365.45 424.55 365.34 424.52
  Q 364.04 424.16 362.74 423.86
  Q 361.64 423.61 360.78 424.21
  Q 360.48 424.41 360.14 424.30
  Q 357.77 423.49 355.08 423.98
  Q 352.70 424.41 350.63 424.25
  Q 348.01 424.05 345.21 423.77
  Q 343.83 423.64 342.88 422.99
  Q 342.65 422.83 342.36 422.85
  Q 341.91 422.88 341.83 423.31
  A 0.32 0.31 5.0 0 1 341.50 423.58
  Q 341.18 423.57 341.10 423.23
  A 0.50 0.48 -5.6 0 0 340.65 422.87
  Q 337.93 422.73 335.33 421.98
  Q 334.97 421.87 335.19 422.18
  Q 335.22 422.22 335.23 422.27
  Q 335.30 422.51 335.04 422.52
  Q 334.47 422.53 334.16 422.29
  Q 333.76 421.98 333.34 421.81
  Q 331.27 420.96 328.89 421.24
  Q 326.77 421.48 324.58 421.16
  Q 319.82 420.47 314.75 419.96
  A 0.74 0.74 0.0 0 0 313.97 420.90
  Q 314.01 421.03 313.47 421.66
  Q 310.49 415.67 311.50 408.64
  Z"
/>
<path fill="#01934a" d="
  M 466.38 408.96
  L 492.72 438.03
  Q 490.94 438.62 489.08 438.66
  Q 486.43 438.72 485.44 438.90
  Q 483.49 439.27 481.33 439.72
  Q 480.46 439.89 479.61 439.85
  C 478.16 439.78 476.96 440.44 475.48 440.41
  Q 468.20 440.26 461.47 438.57
  Q 458.95 437.94 456.22 437.27
  Q 453.61 436.63 450.98 435.53
  Q 447.96 434.26 444.86 433.17
  Q 440.46 430.92 436.04 428.81
  C 432.71 427.22 429.88 425.11 426.73 423.29
  C 421.40 420.23 417.39 415.47 412.85 411.49
  Q 412.44 411.13 411.89 411.10
  Q 408.14 410.89 408.28 408.74
  Q 408.97 408.87 409.30 408.62
  L 466.38 408.96
  Z"
/>
<path fill="#04d141" d="
  M 444.86 433.17
  Q 447.96 434.26 450.98 435.53
  Q 453.61 436.63 456.22 437.27
  Q 458.95 437.94 461.47 438.57
  Q 468.20 440.26 475.48 440.41
  C 476.96 440.44 478.16 439.78 479.61 439.85
  Q 480.46 439.89 481.33 439.72
  Q 483.49 439.27 485.44 438.90
  Q 486.43 438.72 489.08 438.66
  Q 490.94 438.62 492.72 438.03
  L 498.77 443.83
  Q 499.19 444.23 498.61 444.23
  Q 390.70 444.53 341.00 444.22
  C 329.15 444.14 318.95 435.45 314.56 424.63
  L 313.47 421.66
  Q 314.01 421.03 313.97 420.90
  A 0.74 0.74 0.0 0 1 314.75 419.96
  Q 319.82 420.47 324.58 421.16
  Q 326.77 421.48 328.89 421.24
  Q 331.27 420.96 333.34 421.81
  Q 333.76 421.98 334.16 422.29
  Q 334.47 422.53 335.04 422.52
  Q 335.30 422.51 335.23 422.27
  Q 335.22 422.22 335.19 422.18
  Q 334.97 421.87 335.33 421.98
  Q 337.93 422.73 340.65 422.87
  A 0.50 0.48 -5.6 0 1 341.10 423.23
  Q 341.18 423.57 341.50 423.58
  A 0.32 0.31 5.0 0 0 341.83 423.31
  Q 341.91 422.88 342.36 422.85
  Q 342.65 422.83 342.88 422.99
  Q 343.83 423.64 345.21 423.77
  Q 348.01 424.05 350.63 424.25
  Q 352.70 424.41 355.08 423.98
  Q 357.77 423.49 360.14 424.30
  Q 360.48 424.41 360.78 424.21
  Q 361.64 423.61 362.74 423.86
  Q 364.04 424.16 365.34 424.52
  Q 365.45 424.55 365.48 424.45
  Q 365.53 424.31 365.46 424.19
  Q 365.41 424.11 365.51 424.11
  Q 373.98 424.46 382.55 425.43
  Q 385.51 425.77 388.53 425.86
  Q 391.63 425.95 394.67 426.21
  Q 394.72 426.22 394.67 426.25
  Q 394.38 426.40 394.50 426.47
  Q 394.54 426.50 394.59 426.51
  Q 397.70 427.05 400.85 427.27
  Q 403.93 427.49 407.15 427.58
  Q 412.09 427.71 417.09 428.18
  Q 422.09 428.66 425.44 429.53
  Q 426.04 429.69 425.51 430.02
  L 425.22 430.20
  Q 424.67 430.54 425.22 430.88
  Q 426.53 431.68 427.99 431.12
  A 1.43 1.42 -37.2 0 1 429.33 431.30
  C 430.27 431.99 431.19 431.27 432.19 431.32
  Q 438.67 431.60 444.86 433.17
  Z"
/>
<path fill="#80f5e9" d="
  M 442.05 458.06
  Q 440.29 459.73 440.13 461.77
  Q 440.09 462.16 439.64 462.52
  Q 439.26 462.83 439.02 463.26
  Q 436.06 468.56 430.00 470.79
  Q 432.01 469.29 433.94 467.87
  Q 436.28 466.15 437.28 464.46
  Q 440.31 459.35 440.88 453.07
  Q 440.90 452.77 441.17 452.65
  Q 441.70 452.39 441.74 452.98
  L 442.05 458.06
  Z"
/>
<path fill="#80f5e9" d="
  M 212.01 457.87
  Q 212.16 457.99 212.16 458.19
  A 0.41 0.40 8.6 0 1 211.63 458.57
  Q 211.19 458.44 211.25 457.97
  Q 211.29 457.73 211.25 457.50
  Q 210.99 456.00 211.44 454.53
  Q 211.76 453.50 212.21 454.47
  Q 212.81 455.77 211.92 457.35
  Q 211.76 457.64 212.01 457.87
  Z"
/>
<path fill="#80f5e9" d="
  M 210.19 461.01
  L 208.81 463.05
  Q 208.23 462.18 208.98 461.74
  A 0.94 0.93 -12.9 0 0 209.42 461.05
  Q 209.49 460.44 209.79 459.92
  Q 210.23 459.17 210.31 460.03
  Q 210.34 460.40 210.19 461.01
  Z"
/>
<path fill="#017e68" d="
  M 325.69 494.43
  Q 317.71 484.66 305.24 482.01
  Q 301.55 481.22 297.81 480.88
  L 297.20 475.35
  Q 298.43 472.08 296.82 472.62
  Q 298.78 472.03 300.75 472.03
  Q 313.08 471.99 325.02 471.66
  A 1.83 1.82 87.0 0 1 326.89 473.35
  Q 327.66 483.00 327.00 492.43
  A 1.20 1.18 83.0 0 1 326.20 493.47
  Q 325.35 493.75 325.69 494.43
  Z"
/>
<path fill="#80f5e9" d="
  M 296.82 472.62
  Q 298.43 472.08 297.20 475.35
  Q 296.14 473.10 294.25 473.14
  Q 287.87 473.28 281.55 472.77
  L 296.82 472.62
  Z"
/>
<path fill="#08b88c" d="
  M 325.69 494.43
  Q 327.03 496.89 327.19 499.25
  Q 327.69 506.54 327.62 514.25
  C 327.40 542.31 327.69 566.40 327.56 591.55
  C 327.55 594.58 327.72 597.49 327.29 600.47
  L 297.60 600.29
  Q 298.08 586.80 297.68 573.33
  Q 297.66 572.79 297.45 572.49
  Q 297.02 571.89 296.47 572.26
  Q 297.36 569.01 297.37 567.00
  C 297.44 538.29 298.19 509.60 297.81 480.88
  Q 301.55 481.22 305.24 482.01
  Q 317.71 484.66 325.69 494.43
  Z"
/>
<path fill="#28e2c8" d="
  M 356.21 570.43
  Q 356.75 571.08 357.07 572.74
  Q 357.35 574.22 359.04 574.53
  C 364.46 575.54 369.73 576.14 375.24 576.26
  C 391.24 576.59 407.26 576.79 423.29 578.32
  Q 432.05 579.15 440.36 579.85
  Q 441.21 581.69 441.65 583.45
  Q 441.86 584.29 441.65 584.99
  Q 441.42 585.77 441.55 586.57
  C 441.93 588.92 441.67 591.56 441.66 593.92
  Q 441.66 594.54 441.96 595.08
  Q 442.24 595.58 442.13 596.10
  A 0.69 0.68 3.3 0 1 441.51 596.65
  C 435.06 597.09 428.53 598.21 422.18 598.52
  C 412.61 598.99 403.28 599.76 394.26 599.95
  Q 377.25 600.30 360.25 600.46
  Q 357.76 600.48 355.67 600.37
  Q 355.11 585.26 356.21 570.43
  Z"
/>
<path fill="#28e2c8" d="
  M 296.47 572.26
  Q 297.02 571.89 297.45 572.49
  Q 297.66 572.79 297.68 573.33
  Q 298.08 586.80 297.60 600.29
  Q 257.87 600.42 218.99 597.90
  Q 217.97 597.83 218.90 597.40
  Q 219.40 597.17 219.78 596.77
  Q 220.26 596.27 220.56 595.64
  Q 221.57 593.56 223.49 592.23
  Q 223.59 592.16 223.59 592.04
  Q 223.60 591.80 223.45 591.83
  Q 222.69 591.95 223.16 591.35
  Q 223.82 590.51 224.85 590.05
  Q 225.24 589.88 225.12 589.47
  Q 224.92 588.80 225.59 588.68
  Q 226.12 588.58 226.33 588.09
  Q 226.56 587.54 227.12 587.38
  Q 227.94 587.14 228.58 586.66
  Q 232.88 583.42 238.27 580.75
  Q 238.39 580.69 238.38 580.56
  Q 238.37 580.43 238.31 580.31
  Q 238.11 579.92 238.54 579.89
  Q 238.78 579.87 239.01 579.78
  Q 239.76 579.48 238.96 579.60
  Q 238.71 579.64 238.47 579.48
  Q 237.97 579.13 238.55 578.96
  L 245.15 576.99
  Q 267.24 576.28 289.75 574.63
  Q 293.79 574.33 296.47 572.26
  Z"
/>
<path fill="#80f5e9" d="
  M 245.15 576.99
  L 238.55 578.96
  Q 237.97 579.13 238.47 579.48
  Q 238.71 579.64 238.96 579.60
  Q 239.76 579.48 239.01 579.78
  Q 238.78 579.87 238.54 579.89
  Q 238.11 579.92 238.31 580.31
  Q 238.37 580.43 238.38 580.56
  Q 238.39 580.69 238.27 580.75
  Q 232.88 583.42 228.58 586.66
  Q 227.94 587.14 227.12 587.38
  Q 226.56 587.54 226.33 588.09
  Q 226.12 588.58 225.59 588.68
  Q 224.92 588.80 225.12 589.47
  Q 225.24 589.88 224.85 590.05
  Q 223.82 590.51 223.16 591.35
  Q 222.69 591.95 223.45 591.83
  Q 223.60 591.80 223.59 592.04
  Q 223.59 592.16 223.49 592.23
  Q 221.57 593.56 220.56 595.64
  Q 220.26 596.27 219.78 596.77
  Q 219.40 597.17 218.90 597.40
  Q 217.97 597.83 218.99 597.90
  Q 257.87 600.42 297.60 600.29
  L 327.29 600.47
  L 355.67 600.37
  Q 357.76 600.48 360.25 600.46
  Q 377.25 600.30 394.26 599.95
  C 403.28 599.76 412.61 598.99 422.18 598.52
  C 428.53 598.21 435.06 597.09 441.51 596.65
  A 0.69 0.68 3.3 0 0 442.13 596.10
  Q 442.24 595.58 441.96 595.08
  Q 441.66 594.54 441.66 593.92
  C 441.67 591.56 441.93 588.92 441.55 586.57
  Q 441.42 585.77 441.65 584.99
  Q 441.86 584.29 441.65 583.45
  Q 441.21 581.69 440.36 579.85
  Q 449.49 579.86 457.50 580.85
  Q 471.14 582.54 485.38 584.62
  C 497.15 586.33 509.66 589.31 518.86 596.27
  A 0.25 0.25 0.0 0 1 518.83 596.68
  C 511.07 601.09 504.19 603.33 494.75 605.01
  Q 480.88 607.48 472.10 608.33
  C 462.17 609.30 452.11 610.38 442.07 610.87
  Q 436.00 611.16 429.96 611.73
  L 421.51 611.64
  Q 421.01 611.63 420.58 611.88
  Q 420.14 612.13 419.69 612.12
  Q 415.41 612.04 411.41 612.17
  Q 407.18 612.31 403.12 612.30
  Q 387.51 612.23 372.77 612.95
  Q 370.17 613.08 367.49 613.51
  Q 365.14 613.88 362.97 614.03
  Q 360.09 614.23 357.58 615.65
  Q 357.15 615.90 356.66 615.93
  L 352.28 616.19
  Q 338.27 616.65 324.23 616.20
  Q 313.77 615.86 304.25 615.75
  Q 295.94 615.65 288.24 615.28
  C 272.34 614.51 256.16 614.20 240.54 614.19
  C 229.07 614.19 217.58 612.82 206.11 612.24
  C 200.17 611.94 194.21 611.72 188.53 610.96
  C 179.78 609.80 170.13 609.00 161.21 606.89
  C 153.07 604.96 144.72 603.46 137.68 599.13
  Q 135.19 597.59 136.60 595.26
  C 139.29 590.83 149.01 588.18 153.91 587.20
  C 163.02 585.38 172.10 583.57 181.50 582.61
  C 191.26 581.61 200.71 580.21 210.95 579.82
  C 222.15 579.40 233.63 577.42 245.15 576.99
  Z"
/>
<path fill="#006c5c" d="
  M 429.96 611.73
  Q 422.65 612.98 415.25 613.43
  Q 407.76 613.89 400.24 614.45
  A 0.31 0.31 0.0 0 0 400.07 614.99
  Q 400.35 615.22 400.68 615.17
  Q 400.91 615.13 400.68 615.13
  Q 397.11 615.09 393.01 615.31
  Q 372.69 616.42 352.28 616.19
  L 356.66 615.93
  Q 357.15 615.90 357.58 615.65
  Q 360.09 614.23 362.97 614.03
  Q 365.14 613.88 367.49 613.51
  Q 370.17 613.08 372.77 612.95
  Q 387.51 612.23 403.12 612.30
  Q 407.18 612.31 411.41 612.17
  Q 415.41 612.04 419.69 612.12
  Q 420.14 612.13 420.58 611.88
  Q 421.01 611.63 421.51 611.64
  L 429.96 611.73
  Z"
/>
</svg>
